<?xml version="1.0" encoding="UTF-8" standalone="no"?>
<!-- Created with Inkscape (http://www.inkscape.org/) -->

<svg
   width="128"
   height="128"
   viewBox="0 0 128 128"
   version="1.1"
   id="svg1"
   inkscape:version="1.3.2 (091e20e, 2023-11-25, custom)"
   sodipodi:docname="mks_color_ver0.svg"
   inkscape:export-filename="mks_color_ver2.svg"
   inkscape:export-xdpi="96"
   inkscape:export-ydpi="96"
   xmlns:inkscape="http://www.inkscape.org/namespaces/inkscape"
   xmlns:sodipodi="http://sodipodi.sourceforge.net/DTD/sodipodi-0.dtd"
   xmlns="http://www.w3.org/2000/svg"
   xmlns:svg="http://www.w3.org/2000/svg">
  <sodipodi:namedview
     id="namedview1"
     pagecolor="#505050"
     bordercolor="#ffffff"
     borderopacity="1"
     inkscape:showpageshadow="0"
     inkscape:pageopacity="0"
     inkscape:pagecheckerboard="1"
     inkscape:deskcolor="#505050"
     inkscape:document-units="px"
     inkscape:zoom="0.25367456"
     inkscape:cx="2087.3201"
     inkscape:cy="616.93219"
     inkscape:window-width="1920"
     inkscape:window-height="1057"
     inkscape:window-x="1912"
     inkscape:window-y="-8"
     inkscape:window-maximized="1"
     inkscape:current-layer="layer1" />
  <defs
     id="defs1" />
  <g
     inkscape:label="Layer 1"
     inkscape:groupmode="layer"
     id="layer1">
    <g
       id="g26"
       transform="matrix(0.055411,0,0,0.055411,-45.237893,3.2266261)">
      <ellipse
         style="fill:#24273a;fill-opacity:1;stroke:#eb87b6;stroke-width:0"
         id="path20"
         cx="1971.688"
         cy="1080.0645"
         rx="1145.6447"
         ry="1114.9825"
         inkscape:label="path20" />
      <g
         id="g25">
        <g
           id="g24">
          <path
             d="m 2576.5435,365.40372 c 32.8275,25.06649 37.2121,75.13835 42.4102,113.15625 0.8266,6.28314 1.5549,12.57611 2.25,18.875 0.084,0.74059 0.1671,1.48117 0.2532,2.2442 2.855,25.57895 3.0303,51.21014 3.0564,76.91723 0,2.54612 0.01,5.09223 0.014,7.63835 0.043,26.30513 -1.0484,52.3143 -3.8053,78.49389 -0.4732,4.4941 -0.3914,8.23675 0.4817,12.70633 -0.1412,2.72344 -0.5807,5.29758 -1,8 3.9087,-3.74553 7.2615,-7.71474 10.5625,-12 1.3881,-1.78717 2.7767,-3.57395 4.1655,-5.36059 1.1605,-1.49567 2.3161,-2.99508 3.4712,-4.49488 1.8214,-2.16907 3.1897,-3.11874 5.8008,-4.14453 -0.5874,3.99061 -1.8301,6.8053 -3.8867,10.26172 -0.6019,1.02368 -1.2039,2.04735 -1.824,3.10205 -0.6524,1.09683 -1.3047,2.19366 -1.9768,3.32373 -1.3755,2.34177 -2.7435,4.68783 -4.1094,7.03516 -0.5243,0.90024 -0.5243,0.90024 -1.0593,1.81866 -5.9952,10.33133 -11.5798,20.89055 -17.1438,31.45868 -0.4243,0.8018 -0.8485,1.6036 -1.2857,2.42969 -8.8282,15.58688 -8.8282,15.58688 -12.7143,32.57031 0.3893,-0.47308 0.7786,-0.94617 1.1797,-1.43359 4.0708,-4.8118 8.425,-9.0554 13.1562,-13.21485 2.7247,-2.40503 5.379,-4.87548 8.0391,-7.35156 5.5846,-5.09728 11.5016,-9.5758 17.625,-14 0.66,0.33 1.32,0.66 2,1 -4.655,20.40021 -11.0618,35.5914 -23.5391,52.32031 -3.6319,4.87214 -7.0936,9.8514 -10.5234,14.86719 -0.8038,1.16656 -0.8038,1.16656 -1.6238,2.35669 -2.9934,4.38144 -5.748,8.8105 -8.3137,13.45581 1.1808,-0.50531 2.3615,-1.01062 3.5781,-1.53125 1.5571,-0.65662 3.1144,-1.31285 4.6719,-1.96875 0.7773,-0.33387 1.5546,-0.66773 2.3555,-1.01172 0.7541,-0.31582 1.5082,-0.63164 2.2851,-0.95703 0.6913,-0.29326 1.3825,-0.58652 2.0947,-0.88867 2.0147,-0.64258 2.0147,-0.64258 6.0147,-0.64258 -0.5573,3.34374 -1.3518,6.03313 -3,9 2.31,-0.33 4.62,-0.66 7,-1 -0.33,2.97 -0.66,5.94 -1,9 8.8116,-1.47606 17.17,-3.09906 25.5469,-6.32812 2.6299,-0.72031 3.9241,-0.59364 6.4531,0.32812 -5.3677,14.69461 -17.9989,27.24333 -29,38 -1.1624,2.32473 -1.1362,3.70196 -1.1577,6.29102 -0.01,0.88852 -0.021,1.77705 -0.031,2.6925 -0.01,0.9645 -0.015,1.929 -0.022,2.92273 -0.028,2.04428 -0.057,4.08855 -0.086,6.13281 -0.041,3.22103 -0.078,6.44191 -0.1045,9.66309 -0.028,3.11001 -0.074,6.21935 -0.1221,9.3291 0,0.94831 -0.01,1.89662 -0.01,2.87366 -0.1172,6.46164 -1.3064,12.00817 -3.4667,18.09509 0.6058,-1.00418 1.2117,-2.00836 1.8359,-3.04297 7.6477,-12.54052 15.7619,-25.447 27.1641,-34.95703 0.66,0 1.32,0 2,0 -0.5682,3.38263 -1.3832,6.10782 -2.9766,9.14063 -0.4158,0.80663 -0.8316,1.61326 -1.26,2.44433 -0.4582,0.87947 -0.9164,1.75893 -1.3884,2.66504 -4.6064,8.99502 -8.8459,18.11429 -12.9691,27.33664 -9.2578,20.6811 -19.0686,40.46156 -34.4059,57.41336 0.99,-0.33 1.98,-0.66 3,-1 1.8087,-0.14359 3.6233,-0.22046 5.4375,-0.25 0.9474,-0.0258 1.8949,-0.0516 2.8711,-0.0781 3.1254,0.38104 4.3328,1.31295 6.6914,3.32812 1.648,0.71163 3.3116,1.39032 5,2 -3.3044,7.93753 -12.615,12.4633 -19.5625,17 -9.0188,5.92535 -15.8626,11.03609 -20.4375,21.00001 1.2001,0.037 2.4002,0.075 3.6367,0.1133 9.2974,0.3438 18.5122,0.9766 27.7383,2.1992 0.8723,0.1054 1.7446,0.2109 2.6433,0.3196 13.0644,1.8576 20.3778,12.4994 27.9817,22.3679 0.5723,0.6974 1.1447,1.3948 1.7344,2.1133 1.2656,1.8867 1.2656,1.8867 1.2656,4.8867 -2.4662,1.2331 -4.4011,0.9856 -7.1055,0.8848 -9.2842,-0.3223 -17.0601,1.2719 -25.8945,4.1152 1.8002,-0.014 1.8002,-0.014 3.6367,-0.027 19.2154,0.2046 36.8711,6.2266 53.3633,16.0273 0.33,0.66 0.66,1.32 1,2 -10.2062,0.3434 -19.916,-0.517 -29.9976,-1.9714 -2.3936,-0.3434 -4.7893,-0.6663 -7.186,-0.9876 -1.551,-0.2169 -3.1017,-0.4349 -4.6524,-0.6543 -0.7022,-0.094 -1.4044,-0.1877 -2.128,-0.2845 -4.9999,-0.7398 -9.3498,-2.2043 -14.036,-4.1022 0.5337,0.4989 1.0673,0.9978 1.6172,1.5117 13.3354,12.851 21.8319,27.7272 30.6616,43.8189 4.7612,8.6731 9.7118,16.7745 15.7212,24.6694 4,5.4761 4,5.4761 4,9 -7.2168,-0.5504 -13.5665,-2.6848 -20.375,-5.0625 -2.1528,-0.7434 -4.3064,-1.4844 -6.461,-2.2226 -0.944,-0.3288 -1.8881,-0.6576 -2.8608,-0.9964 -2.2193,-0.8177 -2.2193,-0.8177 -4.3032,-0.7185 12.1095,16.3665 26.9294,31.5165 43,44 1.3979,1.1137 2.7949,2.2284 4.1914,3.3438 8.198,6.5067 16.4548,12.6083 25.3789,18.082 0.8018,0.5195 1.6036,1.039 2.4297,1.5742 0,0.33 0,0.66 0,1 -5.559,0.3226 -11.1181,0.617 -16.6802,0.8799 -1.836,0.095 -3.6703,0.2229 -5.5034,0.3623 -13.9051,0.7196 -25.2233,-6.0428 -35.8164,-14.2422 1.1273,1.1273 1.1273,1.1273 2.2773,2.2774 1.5027,1.5026 3.0005,3.0103 4.4766,4.539 12.1196,11.7009 28.8441,19.2042 43.4922,27.1998 13.0973,7.2175 13.0973,7.2175 18.7539,11.9838 0,0.66 0,1.32 0,2 -11.0982,3.3482 -22.0661,4.8658 -33.593,5.9602 -5.699,0.5546 -10.9761,1.1954 -16.407,3.0398 0.62,0.1728 1.2401,0.3455 1.8789,0.5235 8.1935,2.6 14.6851,6.9248 21.6572,11.7729 5.0799,3.5125 10.2072,6.9551 15.3389,10.3911 0.5739,0.3844 1.1479,0.7687 1.7392,1.1647 8.5501,5.7128 17.2013,11.2175 26.0108,16.5228 1.0117,0.6119 2.0235,1.2238 3.0659,1.8543 8.507,5.0612 15.8229,9.3136 25.8716,9.5207 0.7225,0.03 1.445,0.059 2.1894,0.09 1.7488,0.07 3.4984,0.1172 5.2481,0.1601 0,0.99 0,1.98 0,3 -0.9526,0.1212 -1.9053,0.2424 -2.8867,0.3672 -1.2543,0.1676 -2.5086,0.3352 -3.8008,0.5078 -1.2414,0.1625 -2.4828,0.3249 -3.7617,0.4922 -3.147,0.5609 -5.6128,1.4487 -8.5508,2.6328 -24.1189,1.8055 -57.696,-25.9946 -76,-40 0.3751,0.7877 0.7502,1.5753 1.1367,2.3868 2.5465,5.4201 4.9881,10.7989 7.0508,16.4257 11.4782,30.4359 26.0917,54.7769 51.8125,75.1875 1.1457,0.9347 2.2902,1.871 3.4336,2.8086 8.632,7.0453 17.5531,13.5678 26.7143,19.9063 2.4222,1.6807 4.8232,3.3909 7.2271,5.0976 4.3311,3.0511 8.8233,5.8027 13.375,8.5118 2.3457,1.7471 3.2155,2.9778 4.25,5.6757 -6.2281,-0.3533 -10.3791,-3.4998 -15.4375,-6.8125 -10.5288,-6.6784 -21.3101,-12.525 -32.4449,-18.1228 -2.4624,-1.238 -4.9235,-2.4786 -7.3847,-3.719 -5.9911,-3.0175 -11.9861,-6.0271 -17.9829,-9.0332 -1.0007,-0.5018 -2.0015,-1.0036 -3.0325,-1.5207 -2.8682,-1.4369 -5.7379,-2.8708 -8.6081,-4.3035 -0.874,-0.438 -1.748,-0.8759 -2.6485,-1.3272 -0.8073,-0.4021 -1.6145,-0.8042 -2.4463,-1.2184 -0.7056,-0.3524 -1.4112,-0.7049 -2.1382,-1.0679 -2.0268,-0.9883 -2.0268,-0.9883 -4.8764,-1.8748 4.1506,16.3257 20.2866,35.4846 34,45 5.7359,3.1445 11.5871,4.8478 18,6 -11.2978,5.8838 -23.278,4.7665 -35.3203,1.8516 -2.6797,-0.8516 -2.6797,-0.8516 -5.6797,-2.8516 0.33,1.32 0.66,2.64 1,4 -6.1612,4.9258 -12.6398,8.4618 -19.75,11.8125 -0.8158,0.3847 -1.6315,0.7695 -2.4719,1.1658 -6.572,3.0383 -12.5731,5.0328 -19.7781,6.0217 -0.33,0.33 -0.66,0.66 -1,1 1.0931,0.2475 2.1862,0.495 3.3125,0.75 3.2249,0.8035 6.273,1.8108 9.375,3 6.512,2.4398 13.1833,4.2737 19.8757,6.1436 4.5206,1.264 9,2.5664 13.4368,4.1064 -1.5906,4.7717 -5.6806,5.8201 -10,8 -0.99,0.5472 -0.99,0.5472 -2,1.1055 -16.1348,8.225 -35.8772,6.2706 -53.4446,6.1005 -3.5672,-0.031 -7.1346,-0.045 -10.7019,-0.06 -6.9513,-0.032 -13.9024,-0.083 -20.8535,-0.1465 0,0.66 0,1.32 0,2 0.7567,0.2282 1.5133,0.4564 2.293,0.6914 3.0233,1.0673 5.8909,2.232 8.8203,3.5235 32.5359,14.3417 75.7518,32.6626 111.8867,24.7851 0.66,-0.33 1.32,-0.66 2,-1 1.8738,-0.07 3.75,-0.084 5.625,-0.062 1.5043,0.014 1.5043,0.014 3.039,0.027 0.7709,0.012 1.5418,0.023 2.336,0.035 -3.6296,3.6297 -9.165,4.127 -14.0344,5.4041 -1.9713,0.5185 -3.9382,1.0513 -5.9051,1.5862 -15.6197,4.1872 -31.1588,6.3969 -47.2612,7.7168 -4.8398,0.3984 -9.6771,0.8247 -14.5142,1.2539 -0.9645,0.085 -1.929,0.1711 -2.9228,0.2592 -8.6632,0.7818 -17.2945,1.76 -25.9248,2.8423 -0.6627,0.083 -1.3254,0.1654 -2.0082,0.2506 -3.2263,0.403 -6.4521,0.8092 -9.6779,1.2167 -6.1635,0.7726 -12.3307,1.5079 -18.5014,2.2202 -1.5789,0.1916 -1.5789,0.1916 -3.1897,0.387 -20.3616,2.3234 -20.3616,2.3234 -26.0603,-1.137 0,0.66 0,1.32 0,2 0.66,0.2063 1.32,0.4125 2,0.625 8.2877,3.7986 14.352,10.5691 20.4433,17.1602 4.0113,4.1744 6.8206,6.1813 12.5567,7.2148 0,0.66 0,1.32 0,2 -0.7898,0.2914 -1.5796,0.5827 -2.3933,0.8829 -8.0061,3.0082 -15.7087,6.4257 -23.4192,10.1171 -11.7952,5.578 -23.7505,10.6078 -35.9114,15.334 -7.9984,3.1403 -15.5241,6.7722 -23.0405,10.9383 -7.819,4.1752 -16.3332,6.209 -25.2356,5.7277 0,0.66 0,1.32 0,2 9.5969,-1.0529 9.5969,-1.0529 18.8125,-3.75 6.0768,-2.2364 11.0859,-0.2086 16.75,2.375 0.8044,0.4538 1.6087,0.9075 2.4375,1.375 -2.4575,2.7709 -5.126,4.258 -8.375,6 -6.6975,3.8318 -12.1803,8.5318 -17.9629,13.5738 -8.8394,7.5851 -18.3121,14.4185 -27.697,21.3022 -6.7346,4.942 -13.4069,9.9488 -19.9651,15.124 -0.646,0.5092 -1.292,1.0184 -1.9575,1.543 -7.3829,5.8438 -14.5732,11.6765 -21.105,18.4805 -2.4996,2.55 -5.1858,4.8341 -7.8985,7.1523 -2.3241,2.0792 -4.4866,4.2797 -6.664,6.5117 -3.2602,3.3111 -6.3784,5.9555 -10.375,8.3125 0.1417,-1.4379 0.2885,-2.8753 0.4375,-4.3125 0.081,-0.8005 0.1624,-1.601 0.2461,-2.4257 0.3164,-2.2618 0.3164,-2.2618 1.3164,-5.2618 0.1529,-2.5105 0.2569,-4.9988 0.3164,-7.5117 0.021,-0.7282 0.042,-1.4564 0.063,-2.2067 0.065,-2.3229 0.1243,-4.646 0.1831,-6.9691 0.043,-1.5761 0.087,-3.1523 0.1308,-4.7285 0.107,-3.8612 0.2084,-7.7225 0.3067,-11.584 -0.3893,1.1628 -0.7786,2.3255 -1.1797,3.5235 -9.1571,26.5267 -24.8237,48.0423 -43.8203,68.4765 -0.9339,1.0152 -0.9339,1.0152 -1.8867,2.0508 -14.876,15.5621 -32.5107,24.4768 -53.1133,29.9492 -1.271,0.3416 -2.542,0.6832 -3.8516,1.0352 -19.4158,4.3941 -40.0038,2.9045 -59.1484,-2.0352 -1.013,-0.2569 -1.013,-0.2569 -2.0464,-0.519 -16.0927,-4.2638 -31.2246,-12.8734 -43.9536,-23.481 -0.8643,-0.7164 -0.8643,-0.7164 -1.7461,-1.4472 -7.9018,-6.5737 -15.5721,-13.2154 -22.2539,-21.0528 -5.4067,-6.283 -11.4274,-12.0129 -17.3213,-17.8335 -1.4136,-1.4033 -2.8099,-2.824 -4.2022,-4.2485 -5.5974,-5.465 -11.458,-9.9197 -18.1015,-14.043 -0.8198,-0.5136 -1.6395,-1.0272 -2.4841,-1.5564 -6.9447,-4.313 -14.0218,-8.3756 -21.1373,-12.3984 -6.988,-3.9568 -13.8507,-8.085 -20.6833,-12.303 -3.9486,-2.4365 -7.9164,-4.8401 -11.8906,-7.2343 -34.2628,-20.6526 -34.2628,-20.6526 -46.1797,-30.8829 -0.7478,-0.51 -1.4955,-1.0201 -2.2659,-1.5456 -3.7378,-2.7864 -6.3331,-4.85 -7.491,-9.4827 -0.2039,-3.552 -0.1306,-6.9821 0.069,-10.5342 0.039,-1.2498 0.078,-2.4996 0.1184,-3.7873 0.1321,-3.5561 0.3328,-7.0996 0.5691,-10.6502 0.051,-0.8427 0.1025,-1.6854 0.1553,-2.5537 0.708,-10.2224 2.6551,-21.5337 10.0947,-29.0556 5.6826,-4.712 12.6084,-5.9989 19.625,-7.6407 1.3247,-0.3259 2.649,-0.654 3.9726,-0.9843 2.5584,-0.6373 5.118,-1.2682 7.679,-1.8951 33.8625,-8.4876 66.2704,-27.9581 91.4734,-51.8706 0.5053,-0.4727 1.0106,-0.9455 1.5312,-1.4326 12.7075,-11.9514 21.8618,-25.4746 30.4688,-40.5674 0.3427,-0.5936 0.6854,-1.1872 1.0386,-1.7988 9.4057,-16.4072 15.7784,-33.7872 19.9614,-52.2012 0.3693,-1.5082 0.3693,-1.5082 0.7461,-3.0468 4.3603,-20.8095 1.6056,-41.5064 -9.4492,-59.6055 -28.2397,-42.3223 -85.4955,-62.9371 -133.0899,-72.7339 -8.3471,-1.5975 -16.7601,-2.7032 -25.207,-3.6138 -1.1524,-0.1414 -1.1524,-0.1414 -2.3281,-0.2856 -9.8914,-1.0884 -19.8584,-0.9582 -29.7969,-0.9644 -0.9817,-6e-4 -1.9633,0 -2.9747,0 -15.1716,0.016 -29.9361,0.5291 -44.9003,3.252 -0.9124,0.161 -1.8247,0.322 -2.7647,0.4878 -47.5969,8.6714 -102.9901,27.2803 -132.2353,68.5122 -12.7091,19.5365 -16.7401,39.6459 -12.0313,62.5313 5.7885,25.9104 16.424,52.5559 33.0313,73.4687 0.651,0.8534 1.3019,1.7068 1.9726,2.586 9.5043,12.1157 20.7422,23.1449 33.0274,32.414 0.6268,0.4762 1.2536,0.9523 1.8994,1.4429 10.8516,8.1961 22.1051,15.4475 33.8701,22.2583 1.934,1.1262 3.8508,2.2747 5.7617,3.4395 16.6148,9.9205 34.6888,17.1922 52.7642,23.9797 22.2253,8.4556 22.2253,8.4556 26.814,18.2468 4.3802,10.9507 5.0865,21.9153 5.2656,33.5703 0.026,0.9955 0.052,1.991 0.079,3.0166 0.014,5.913 -0.3381,9.493 -4.4541,14.0459 -5.7576,5.686 -12.0516,10.3361 -18.8125,14.75 -0.9065,0.5978 -1.8131,1.1956 -2.7471,1.8116 -9.3131,6.0937 -18.8389,11.8137 -28.4404,17.4384 -0.7743,0.454 -1.5485,0.9079 -2.3462,1.3755 -1.5125,0.8866 -3.025,1.7731 -4.5376,2.6595 -24.4697,14.3489 -43.3232,31.9857 -63.1531,52.0979 -2.2582,2.2881 -4.5223,4.5702 -6.7873,6.8515 -0.6926,0.7061 -1.3852,1.4121 -2.0988,2.1396 -0.9579,0.963 -0.9579,0.963 -1.9352,1.9454 -0.5603,0.5678 -1.1207,1.1356 -1.698,1.7206 -1.4438,1.21 -1.4438,1.21 -3.4438,1.21 0,0.66 0,1.32 0,2 -2.9654,2.7574 -6.1839,5.2084 -9.3662,7.7105 -1.5994,1.2624 -3.1835,2.5421 -4.7666,3.8247 -7.4971,6.0046 -15.3377,11.037 -23.8672,15.4648 -0.9344,0.4907 -0.9344,0.4907 -1.8877,0.9913 -17.3759,8.9996 -36.4112,16.2996 -56.1123,17.0087 -0.913,0.041 -1.826,0.082 -2.7666,0.1241 -36.3803,1.4371 -70.8691,-7.6041 -98.1402,-32.3594 -23.0307,-21.3796 -36.2721,-46.7991 -47.6831,-75.8154 -7.5562,-18.956 -20.4606,-33.6265 -37.4101,-44.9493 -1.3748,-0.9339 -1.3748,-0.9339 -2.7774,-1.8867 -17.383,-11.2613 -36.9019,-18.8929 -56.2226,-26.1133 -0.6445,-0.2421 -1.2889,-0.4843 -1.9529,-0.7338 -1.2636,-0.4748 -2.5276,-0.9486 -3.792,-1.4214 -1.7406,-0.652 -3.4801,-1.3069 -5.2192,-1.9629 -31.6348,-11.9064 -63.5413,-21.1069 -96.4812,-28.5733 -1.7447,-0.397 -1.7447,-0.397 -3.5247,-0.802 -2.135,-0.4832 -4.2714,-0.9603 -6.4097,-1.4292 -17.9118,-4.0195 -32.2843,-11.9053 -47.6828,-21.5774 -1.5712,-0.9836 -1.5712,-0.9836 -3.1741,-1.987 -4.2478,-2.6625 -8.4905,-5.3259 -12.6775,-8.0833 -19.4968,-12.2379 -44.3429,-13.3325 -66.3359,-8.3047 -8.2547,2.0182 -16.4156,4.4526 -24.4951,7.0826 -1.1684,0.3729 -1.1684,0.3729 -2.3604,0.7534 -0.6821,0.2248 -1.3643,0.4495 -2.0671,0.6811 -1.8274,0.3579 -1.8274,0.3579 -4.8274,-0.6421 7.4883,-5.8794 14.9788,-10.1958 23.6875,-14 2.3042,-1.0345 4.6076,-2.071 6.9101,-3.1093 1.6535,-0.7416 1.6535,-0.7416 3.3404,-1.4981 5.8223,-2.6479 11.5147,-5.5442 17.2099,-8.4526 2.6522,-1.346 5.3188,-2.6626 7.9842,-3.9822 3.2973,-1.6367 6.5842,-3.2938 9.8679,-4.9578 0.6,-0.3029 1.2001,-0.6058 1.8183,-0.9179 7.9118,-4.0218 15.628,-8.2863 21.7989,-14.7852 1.3828,-1.2969 1.3828,-1.2969 3.3828,-1.2969 0.2256,-0.5555 0.4512,-1.1111 0.6836,-1.6836 1.7018,-2.9945 3.8899,-5.0044 6.3789,-7.3789 3.767,-3.4545 3.767,-3.4545 5.9375,-7.9375 -0.9281,0.3197 -1.8563,0.6394 -2.8125,0.9688 -5.0054,1.4272 -10.0148,1.4071 -15.1875,1.5312 -22.7702,0.8065 -45.1097,5.2544 -67,11.5 -1.3317,0.34 -2.6642,0.6766 -4,1 6.4344,-13.7309 19.0319,-22.584 31.362,-30.5976 6.8402,-4.4616 13.3602,-9.2299 19.2247,-14.95 6.0671,-5.7192 13.1305,-9.3495 20.4758,-13.1399 1.2538,-0.6558 2.507,-1.3127 3.7597,-1.9707 0.9127,-0.4786 0.9127,-0.4786 1.8438,-0.967 1.7576,-0.9232 3.5137,-1.8494 5.2698,-2.7756 1.7895,-0.934 3.5884,-1.8511 5.4077,-2.7256 3.1987,-1.6033 4.5488,-2.6652 6.2151,-5.8892 0.29,-1.0673 0.5801,-2.1347 0.8789,-3.2344 0.3081,-1.0776 0.6162,-2.1553 0.9336,-3.2656 0.3113,-1.2297 0.3113,-1.2297 0.6289,-2.4844 -0.9823,0.818 -0.9823,0.818 -1.9844,1.6524 -22.2666,18.3982 -41.2629,28.3676 -70.0156,32.3476 0.8125,-1.9375 0.8125,-1.9375 2,-4 0.99,-0.33 1.98,-0.66 3,-1 1.0523,-1.8434 1.0523,-1.8434 2,-4 0.9813,-1.3883 1.9838,-2.7619 3,-4.125 8.4463,-11.9642 14.8216,-25.3817 21.5444,-38.3554 3.3796,-6.5068 6.8696,-12.9368 10.46,-19.3291 4.2167,-7.5315 8.2777,-15.1455 12.3417,-22.76 3.8214,-7.1594 7.6663,-14.3042 11.5736,-21.4173 6.3162,-11.4987 12.5876,-22.9897 17.6616,-35.1001 2.7171,-6.4677 5.7113,-12.3204 9.6409,-18.1718 3.8453,-5.7364 7.3436,-11.6623 10.8403,-17.6163 0.5847,-0.9946 1.1695,-1.9893 1.772,-3.0141 1.3907,-2.369 2.7793,-4.7392 4.1655,-7.1109 -2.7819,3.3307 -5.1793,6.7649 -7.5007,10.4178 -3.6998,5.7966 -7.1722,10.7602 -12.6321,15.0471 -2.7232,2.2389 -4.8764,4.8855 -7.1563,7.5625 -5.0756,5.852 -10.8256,10.9569 -16.7109,15.9726 -0.874,0.7632 -1.748,1.5263 -2.6485,2.3125 -7.693,6.6 -15.7413,12.3427 -24.3515,17.6875 -0.6405,0.4019 -1.281,0.8038 -1.9409,1.2178 -10.0403,6.2036 -20.6495,10.9098 -31.5591,15.3447 -0.6443,0.266 -1.2886,0.5319 -1.9524,0.8059 -7.4434,3.053 -14.4152,5.4979 -22.5476,5.6316 2.0503,-2.1867 4.049,-3.7654 6.6328,-5.2773 1.0731,-0.6374 1.0731,-0.6374 2.168,-1.2876 0.767,-0.4529 1.5339,-0.9059 2.3242,-1.3726 13.2049,-7.948 25.6604,-16.4468 36.875,-27.0625 1.3283,-1.1516 2.6614,-2.2977 4,-3.4375 8.5369,-7.4719 16.0068,-15.6435 23,-24.5625 0.7799,-0.9861 1.5597,-1.9722 2.3633,-2.9882 15.4051,-19.7295 29.0499,-40.7381 42.3296,-61.9336 2.3067,-3.6673 4.6534,-7.3089 7.0024,-10.9493 1.2249,-1.9986 2.2936,-4.0153 3.3047,-6.1289 -3.107,1.3527 -4.8754,2.7525 -7,5.375 -18.5488,21.8128 -18.5488,21.8128 -30,23.625 0.4192,-6.6534 3.0437,-11.5405 6.125,-17.375 3.702,-7.1673 7.2595,-14.3514 10.5156,-21.7304 0.3055,-0.692 0.611,-1.3839 0.9258,-2.0968 0.6227,-1.4112 1.2453,-2.8225 1.8679,-4.2337 7.4046,-16.7394 15.3698,-33.7134 27.5657,-47.5641 -0.7166,0.01 -1.4331,0.011 -2.1714,0.016 -3.2345,0.021 -6.469,0.034 -9.7036,0.047 -1.1279,0.01 -2.2559,0.017 -3.418,0.025 -1.0764,0 -2.1527,0.01 -3.2617,0.01 -0.995,0.01 -1.99,0.011 -3.0151,0.016 -2.4302,-0.1135 -2.4302,-0.1135 -4.4302,-1.1135 0.33,-1.32 0.66,-2.64 1,-4 -11.0279,0 -21.6472,1.101 -32.4375,3.3008 -4.1871,0.8218 -8.3155,1.32 -12.5625,1.6992 0.078,-1.7695 0.078,-1.7695 1,-4 2.2527,-1.4372 4.3439,-2.5675 6.75,-3.6875 0.7023,-0.3418 1.4046,-0.6835 2.1282,-1.0356 4.08,-1.9535 8.2079,-3.744 12.3991,-5.4449 13.5007,-5.4879 23.9899,-11.4902 34.1211,-22.1953 1.757,-1.7955 3.6193,-3.3921 5.5391,-5.0117 4.4183,-3.8131 8.5102,-7.9863 12.0625,-12.625 0,-0.66 0,-1.32 0,-2 -10.5286,-3.50954 -22.0603,0.9517 -31.5706,5.533 -4.5271,2.2693 -8.8838,4.6887 -13.1169,7.467 -1.0931,0.66 -2.1863,1.32 -3.3125,2 -0.99,-0.33 -1.98,-0.66 -3,-1 1.9987,-2.6676 3.9991,-5.334 6,-8 0.5177,-0.6906 1.0354,-1.3812 1.5688,-2.0928 18.4017,-24.49291 18.4017,-24.49291 29.4312,-30.9072 -1.7502,-4.00742 -4.3896,-7.34046 -7,-10.8125 -5.11,-6.88907 -9.9414,-13.91842 -14.6328,-21.09765 -1.4807,-2.26332 -2.9709,-4.52022 -4.461,-6.77735 -10.1766,-15.47056 -19.7482,-31.23636 -28.7187,-47.4375 -0.5344,-0.95503 -1.0688,-1.91007 -1.6194,-2.89404 -0.4827,-0.88317 -0.9653,-1.76634 -1.4626,-2.67627 -0.4316,-0.78391 -0.8632,-1.56782 -1.3079,-2.37549 -0.2632,-0.63664 -0.5264,-1.27327 -0.7976,-1.9292 0.33,-0.66 0.66,-1.32 1,-2 5.4914,6.56983 10.7942,13.26517 16,20.0625 0.5758,0.75016 1.1516,1.50031 1.7449,2.27319 0.5379,0.7052 1.0758,1.4104 1.6301,2.13697 0.4821,0.63172 0.9642,1.26344 1.4609,1.9143 1.1641,1.61304 1.1641,1.61304 2.1641,3.61304 0.2272,-16.13138 0.1855,-31.99945 -2,-48 -0.1125,-0.85014 -0.225,-1.70027 -0.3408,-2.57617 -0.3484,-2.58158 -0.717,-5.15918 -1.0967,-7.73633 -0.11,-0.77094 -0.22,-1.54188 -0.3333,-2.33618 -1.21,-7.64921 -3.367,-13.1658 -9.3542,-18.35132 -1.4541,-1.27617 -1.4541,-1.27617 -2.9375,-2.57812 -2.6259,-2.16498 -5.3076,-4.17635 -8.0625,-6.17188 -3.0831,-2.31371 -3.7561,-2.86524 -4.9375,-6.6875 0.021,-0.84562 0.041,-1.69125 0.062,-2.5625 5.5574,-0.0985 11.0282,-0.0496 16.5625,0.5 17.43,1.63266 17.43,1.63266 34.4375,-1.5 0.66,-0.66 1.32,-1.32 2,-2 -0.7503,-0.32871 -1.5005,-0.65742 -2.2735,-0.99609 -16.0982,-7.48145 -24.6347,-19.30241 -32.539,-34.75391 -0.5077,-0.985 -1.0155,-1.97001 -1.5386,-2.98486 -3.5636,-6.98174 -6.9851,-14.02496 -10.2739,-21.14014 -0.4136,-0.88397 -0.8271,-1.76795 -1.2532,-2.67871 -2.4624,-5.43739 -4.0191,-10.5771 -5.1218,-16.44629 0.66,0 1.32,0 2,0 1.781,2.36391 3.3475,4.83852 4.9531,7.32422 5.5612,7.26991 13.5913,10.91974 21.4844,15.17578 14.4305,7.80391 14.4305,7.80391 20.5625,12.5 -0.3403,-0.48984 -0.6806,-0.97969 -1.0313,-1.48437 -23.4188,-36.12473 -25.0994,-86.10309 -25.1718,-127.74219 0,-1.66909 0,-1.66909 -0.01,-3.3719 -0.015,-5.91868 -0.024,-11.83733 -0.029,-17.75603 0,-4.79337 -0.018,-9.58656 -0.041,-14.37988 -0.7247,-154.44988 -0.7247,-154.44988 30.2813,-200.26563 0.5517,-0.84433 1.1034,-1.68867 1.6719,-2.55859 7.6835,-10.84842 19.0036,-16.74356 31.6601,-20.05078 24.2818,-3.55517 46.297,4.7469 65.6138,19.05029 5.5497,4.21205 10.9306,8.62748 16.2822,13.08691 2.4478,2.03365 4.9237,4.03215 7.397,6.03467 5.9359,4.86233 11.7469,9.86716 17.5591,14.87598 1.8189,1.56411 3.6427,3.12233 5.4682,4.67871 6.028,5.14195 12.013,10.31612 17.8711,15.65234 2.0798,1.87313 4.1803,3.7151 6.293,5.55078 4.0002,3.49369 7.8852,7.09581 11.7461,10.74219 1.4074,1.32438 2.8149,2.6486 4.2226,3.97266 1.056,0.99411 1.056,0.99411 2.1333,2.0083 3.7979,3.56982 7.6118,7.12254 11.4266,10.67431 3.268,3.0452 6.5242,6.10193 9.7644,9.17676 6.5098,6.16663 13.0285,12.14823 20.0507,17.73438 3.5799,2.98892 6.9525,6.16769 10.3399,9.37109 16.2801,15.34406 34.8233,30.27581 56.5,37 -0.5627,-0.83918 -0.5627,-0.83918 -1.1367,-1.69531 -5.055,-7.91982 -10.4797,-17.64172 -9.8633,-27.30469 4.0283,1.2845 5.5792,2.35129 7.5625,6.0625 5.0889,8.06491 13.3876,12.7342 21.3816,17.56714 12.5099,7.57787 22.1267,17.15382 31.894,27.97632 3.1459,3.44683 5.9246,6.27138 10.1619,8.39404 -0.2772,-1.19496 -0.5543,-2.38992 -0.8399,-3.62109 -0.3661,-1.60541 -0.732,-3.21088 -1.0976,-4.81641 -0.1824,-0.7831 -0.3648,-1.56621 -0.5528,-2.37305 -1.2199,-5.39004 -1.9865,-10.68711 -2.5097,-16.18945 2.8209,2.686 5.0817,5.39368 7.25,8.625 2.4064,3.5123 4.9093,6.84674 7.625,10.125 7.4416,9.20186 13.3071,19.47695 19.2336,29.68799 4.0265,6.89333 8.3605,13.5723 12.739,20.24561 2.1524,3.3164 2.1524,3.3164 3.1524,5.3164 1.98,0 3.96,0 6,0 -0.084,0.68707 -0.1676,1.37414 -0.2539,2.08203 -0.1528,1.35158 -0.1528,1.35158 -0.3086,2.73047 -0.1044,0.89332 -0.2088,1.78664 -0.3164,2.70703 -0.2777,2.61423 -0.2777,2.61423 0.8789,5.48047 0.66,-1.98 1.32,-3.96 2,-6 0.66,0 1.32,0 2,0 0.33,5.28 0.66,10.56 1,16 1.32,0 2.64,0 4,0 -0.021,-1.07894 -0.042,-2.15789 -0.064,-3.26953 -0.073,-4.0329 -0.1185,-8.06575 -0.1562,-12.09912 -0.02,-1.74001 -0.047,-3.47995 -0.082,-5.21973 -0.049,-2.51237 -0.071,-5.02385 -0.089,-7.53662 -0.021,-0.76804 -0.041,-1.53608 -0.063,-2.32739 0,-5.82015 1.5604,-9.50278 4.4532,-14.54761 0.66,0 1.32,0 2,0 0.33,13.53 0.66,27.06 1,41 4.7375,-2.67511 4.7375,-2.67511 9.3437,-5.5625 35.8416,-23.89435 105.2335,-11.77858 144.5313,-4.13672 7.1198,1.44127 14.2338,2.88702 21.2305,4.84766 8.9022,1.94653 16.0167,0.31422 24.6445,-2.27344 1.086,-0.31477 2.1721,-0.62954 3.291,-0.95386 2.2332,-0.64798 4.465,-1.3009 6.6953,-1.95874 4.0194,-1.18526 8.045,-2.34793 12.0733,-3.50293 1.7348,-0.49778 3.4686,-0.99914 5.2011,-1.50488 22.2589,-6.43809 44.9183,-8.34941 67.9893,-8.32959 0.8924,-0.002 1.7848,-0.003 2.7043,-0.005 27.1406,0.006 27.1406,0.006 38.2957,6.37994 0.33,-11.55 0.66,-23.1 1,-35 0.66,0.33 1.32,0.66 2,1 0.632,2.45603 1.139,4.84855 1.5859,7.33985 0.1418,0.74978 0.2835,1.49957 0.4295,2.27207 0.3032,1.60742 0.6025,3.21555 0.8985,4.8243 0.6124,3.3223 1.2466,6.64031 1.8799,9.95868 0.4617,2.42026 0.9208,4.84101 1.3795,7.26184 0.9653,5.08122 1.9464,10.15744 3.0142,15.21826 0.2617,1.27617 0.5233,2.55235 0.793,3.86719 3.2584,10.41211 12.5316,16.75221 20.8027,23.11523 4.7775,3.70781 9.1116,7.69322 13.2168,12.14258 -0.5195,-0.825 -1.039,-1.65 -1.5742,-2.5 -13.9732,-22.83228 -18.4403,-53.96657 -16.4258,-80.5 0.8996,-3.08908 1.9325,-4.34934 4,-7 1.111,-1.57853 2.2145,-3.16237 3.3125,-4.75 0.6046,-0.8482 1.2091,-1.6964 1.832,-2.57031 1.8812,-2.71678 3.6219,-5.49193 5.3555,-8.30469 3.0548,-4.85863 6.4045,-9.33735 10.5,-13.375 0.33,0 0.66,0 1,0 -0.061,0.76442 -0.1212,1.52883 -0.1836,2.31641 -0.6694,8.55757 -1.2596,17.11809 -1.8164,25.68359 0.66,0 1.32,0 2,0 0.2731,-0.8648 0.5462,-1.7296 0.8276,-2.6206 1.9795,-5.70597 4.6896,-11.06358 7.2974,-16.5044 0.544,-1.16015 1.088,-2.32031 1.6484,-3.51562 5.2581,-10.98308 11.7178,-20.93208 19.4141,-30.35938 0.8235,-1.00946 0.8235,-1.00946 1.6636,-2.03931 7.9587,-9.55022 17.3201,-17.47676 27.0044,-25.2185 2.1847,-1.7138 2.1847,-1.7138 4.1445,-3.74219 1.32,0 2.64,0 4,0 -0.6492,3.71955 -1.7018,7.0836 -3,10.625 -1.9525,5.7367 -3.0545,11.2973 -3,17.375 0.33,0.66 0.66,1.32 1,2 0.1341,2.67236 0.043,5.32251 0,8 0.4383,-0.4009 0.8765,-0.8018 1.3281,-1.21484 4.1683,-3.73622 8.4705,-7.26695 12.9219,-10.66016 0.9951,-0.76055 1.9903,-1.52109 3.0156,-2.30469 2.7344,-1.82031 2.7344,-1.82031 6.7344,-2.82031 -0.33,6.6 -0.66,13.2 -1,20 0.9423,-1.15629 1.8846,-2.31258 2.8555,-3.5039 4.2915,-4.902 9.2173,-8.6017 14.457,-12.4336 6.4327,-4.79719 12.661,-9.57507 18.5156,-15.0664 2.4339,-2.23687 4.9704,-4.30044 7.5469,-6.3711 5.1475,-4.16463 10.0085,-8.57805 14.8633,-13.07422 4.5371,-4.19058 9.1987,-8.22539 13.9062,-12.22265 6.5866,-5.60155 13.0591,-11.28889 19.386,-17.18286 2.743,-2.55484 5.5023,-5.07625 8.3445,-7.52027 13.1194,-11.38799 25.3392,-23.73316 37.5625,-36.0625 3.1415,-3.16836 6.2865,-6.33321 9.4336,-9.49609 0.6991,-0.70741 1.3982,-1.41482 2.1185,-2.14366 3.9272,-3.94652 7.9514,-7.70451 12.1872,-11.31879 3.2114,-2.82525 6.1516,-5.91794 9.1357,-8.97896 25.6277,-25.83638 68.2486,-55.95489 104.0273,-31.65625 z"
             style="fill:#7ac3ff;fill-opacity:1"
             id="path2" />
          <ellipse
             style="fill:#232d2f;fill-opacity:1;stroke:#eb87b6;stroke-width:0"
             id="path4"
             cx="2022.2996"
             cy="1632.0557"
             rx="199.30315"
             ry="143.55402" />
          <ellipse
             style="fill:#232d2f;fill-opacity:1;stroke:#eb87b6;stroke-width:0"
             id="path1"
             ry="167.24739"
             rx="268.98956"
             cy="1371.4286"
             cx="2033.4495" />
          <path
             d="m 2561.6548,394.24184 c 32.8275,25.06649 37.2121,75.13835 42.4102,113.15625 0.8266,6.28314 1.5549,12.57611 2.25,18.875 0.1253,1.11088 0.1253,1.11088 0.2532,2.2442 2.855,25.57894 3.0303,51.21014 3.0564,76.91722 0,2.54613 0.01,5.09223 0.014,7.63835 0.045,27.8909 -1.2558,55.45936 -4.3236,83.20023 -0.7688,0.19255 -1.5375,0.3851 -2.3296,0.58349 -3.78,2.00509 -4.0813,4.05736 -5.397,8.08057 -0.3441,1.03138 -0.3441,1.03138 -0.6951,2.08359 -0.755,2.28627 -1.4796,4.58097 -2.2033,6.87735 -0.5231,1.60961 -1.0468,3.21898 -1.5713,4.82812 -4.1677,12.93243 -7.7358,26.01479 -11.2468,39.13745 -3.143,11.71615 -6.5917,23.01129 -11.5359,34.11499 -1.5865,3.56517 -3.1195,7.15185 -4.6319,10.74903 -0.7631,1.81508 -1.5394,3.62477 -2.333,5.42675 -6.2999,14.90204 -6.5346,29.65305 -6.4472,45.57593 0.016,3.44239 1e-4,6.88358 -0.019,10.32593 -0.012,11.15435 0.3828,22.14583 1.7344,33.22461 0.1147,0.94854 0.2293,1.89709 0.3474,2.87437 1.9222,14.13929 7.166,27.18364 13.3972,39.92568 2.438,5.01435 4.5737,10.08207 6.4937,15.31714 0.2637,0.68674 0.5274,1.37349 0.7991,2.08105 2.7285,7.70083 0.5957,13.70271 -2.4241,20.85645 -0.3051,0.73226 -0.6102,1.46453 -0.9246,2.21899 -7.2599,16.9655 -7.2599,16.9655 -13.0129,22.71862 -20.1306,1.5411 -44.7257,-7.38594 -60,-20.00011 -4.9587,-4.35843 -9.7729,-8.86206 -14.5352,-13.4336 -7.7606,-7.30479 -16.2555,-13.4293 -24.874,-19.67383 -5.2341,-3.82349 -10.3963,-7.74398 -15.5652,-11.65502 -4.8579,-3.66076 -9.7837,-7.20101 -14.7783,-10.67286 -2.6479,-1.84363 -5.2652,-3.72633 -7.8723,-5.62719 -0.914,-0.66387 -28.0551,-4.1152 -28.9967,-4.79918 -2.3391,-1.72884 32.9326,-3.18438 30.643,-4.97711 -3.0695,-2.32902 -0.9824,-11.56474 -4.7599,-12.50911 l 3.9421,8.3479 c 1.2762,0.087 -1.6804,-1.88403 -0.3785,-1.79525 15.2262,0.56693 13.3711,-0.65876 26.1754,-9.20475 -0.7133,-6.54593 -2.0153,-12.80228 -3.5391,-19.20118 -3.6842,-15.93291 -5.0117,-32.86597 3.6641,-47.29882 5.7064,-8.46991 11.9501,-15.20518 20.457,-20.86328 18.3345,-12.41058 22.9307,-33.89858 29.957,-53.72266 2.0506,-5.77846 4.1432,-11.53961 6.2735,-17.28906 0.4211,-1.14119 0.4211,-1.14119 0.8508,-2.30542 1.2259,-3.32165 2.4571,-6.64094 3.7,-9.9563 7.5011,-20.36682 12.1121,-41.62298 15.3867,-63.05078 0.1155,-0.75201 0.231,-1.50402 0.3501,-2.27881 1.7698,-12.28149 2.0611,-24.52393 2.0303,-36.90796 -0.01,-2.55564 -1e-4,-5.11111 0.01,-7.66675 0.1465,-31.06708 0.1465,-31.06708 -14.2266,-57.70117 -8.5534,-7.87128 -20.6461,-8.28989 -31.6953,-8.00391 -11.7506,0.5456 -22.3925,3.55973 -33.1279,8.32325 -2.2829,1.0095 -4.5789,1.98525 -6.876,2.96191 -11.2615,4.85503 -21.8513,10.40257 -32.2109,16.96094 -0.696,0.44053 -1.3919,0.88107 -2.1089,1.33496 -2.0559,1.31276 -4.1012,2.64014 -6.1411,3.97754 -0.6082,0.3963 -1.2164,0.79261 -1.843,1.20092 -3.7299,2.49864 -6.7998,5.25906 -9.907,8.48658 -4.8306,4.28118 -8.4696,6.7279 -15,7 l 2,1 v 4 h -3 v 4 h -2 l -0.5,2.125 c -1.6232,3.11115 -2.7123,3.85326 -5.5625,5.75 -2.9782,2.0181 -2.9782,2.0181 -4.6836,5.0625 -0.3216,2.12824 -0.3216,2.12824 -0.2539,5.0625 l 4,1 c 0.6187,-0.96938 1.2375,-1.93875 1.875,-2.9375 2.125,-3.0625 2.125,-3.0625 4.125,-4.0625 -0.9424,2.38045 -1.8909,4.75164 -2.9209,7.0957 -3.0819,7.17714 -4.8982,14.60734 -6.7693,22.16223 -4.3954,17.60461 -10.247,33.10505 -19.5481,48.72644 -3.6417,6.1989 -3.6417,6.1989 -5.7617,13.01563 8.4848,-3.4667 14.7931,-8.7046 21.5537,-14.7168 1.8973,-1.68332 3.8265,-3.32784 5.7588,-4.9707 1.3303,-1.14469 1.3303,-1.14469 2.6875,-2.3125 -1.8566,16.79207 -5.1459,33.43531 -9.0864,49.85424 -3.5255,14.72044 -5.7349,28.22296 -0.6167,42.85279 3.6106,10.41816 5.8496,20.78971 7.5156,31.66797 0.1048,0.6771 0.2097,1.3542 0.3178,2.05182 1.3529,8.83858 2.318,17.64902 2.8697,26.57318 -18.2791,-3.34628 -36.9489,-17.14293 -50.1875,-29.75 -8.9961,-8.52597 -19.2424,-12.4327 -30.8125,-16.25 0.5734,-2.86725 0.8614,-3.86145 3,-6 0.5708,-3.85967 0.3203,-5.52453 -1.8789,-8.78907 -6.9835,-7.37992 -14.4422,-13.71735 -22.4737,-19.93017 -11.1968,-8.70457 -17.598,-17.02529 -19.6474,-31.28076 -2.6804,-35.05079 10.2773,-73.50318 28.375,-103 l 1.3,-2.12622 c 1.0505,-1.66259 2.1807,-3.27433 3.325,-4.87378 h 2 c 0.2449,-0.69868 0.4898,-1.39735 0.7422,-2.11719 1.4522,-3.32843 3.29,-6.03999 5.3828,-9.00781 0.3945,-0.5597 0.789,-1.11939 1.1955,-1.69605 0.817,-1.15597 1.6364,-2.31019 2.4583,-3.46264 1.1835,-1.66331 2.3537,-3.3353 3.522,-5.00928 0.7051,-0.99645 1.4102,-1.99289 2.1367,-3.01953 0.6381,-0.90364 1.2762,-1.80727 1.9336,-2.73828 0.5375,-0.64325 1.0751,-1.28649 1.6289,-1.94922 h 2 c 0.09,-0.56075 0.1805,-1.12149 0.2734,-1.69922 2.167,-6.86203 8.9415,-12.69106 14.0274,-17.60547 1.749,-1.74505 3.3468,-3.56514 4.9492,-5.44531 6.3558,-7.35567 13.3297,-14.13703 20.7226,-20.44141 2.4417,-2.17818 4.7279,-4.48107 7.0274,-6.80859 3.4256,-3.46194 6.9157,-6.73337 10.6133,-9.89844 3.3193,-2.92277 6.5359,-5.95125 9.7617,-8.97656 5.8126,-5.44706 11.6814,-10.82076 17.625,-16.125 1.6673,-1.49928 3.334,-2.99929 5,-4.5 0.8185,-0.73606 1.6371,-1.47211 2.4805,-2.23047 1.7343,-1.56226 3.4659,-3.12754 5.1953,-4.69531 0.8701,-0.78762 1.7402,-1.57524 2.6367,-2.38672 0.7799,-0.7077 1.5597,-1.41539 2.3633,-2.14453 1.5639,-1.37472 3.1674,-2.70561 4.8047,-3.99219 2.6986,-2.19661 5.0744,-4.57605 7.5195,-7.05078 2.0641,-1.9377 4.1583,-3.8421 6.25,-5.75 4.6103,-4.22502 9.1059,-8.52492 13.457,-13.01953 1.9307,-1.87804 3.8981,-3.62368 5.9414,-5.375 4.9803,-4.32314 9.5475,-9.02616 14.1641,-13.73047 6.0501,-6.11142 12.0359,-12.00095 18.8398,-17.26953 2.4779,-1.95843 4.739,-4.06287 7.0352,-6.23047 9.3261,-8.4932 20.3518,-15.43607 31.3125,-21.625 0.9835,-0.55817 1.9671,-1.11633 2.9805,-1.69141 7.7274,-4.30859 7.7274,-4.30859 10.0195,-4.30859 l -1,-2 c -2.3216,-0.4073 -4.6569,-0.74439 -7,-1 v -1 c 14.6002,-3.40765 28.0538,-0.37516 40.3398,7.96875 z"
             style="fill:#eb87b6;fill-opacity:1"
             id="path8"
             sodipodi:nodetypes="ccccccccccccccsccccccccccccccccccccccccccccscccccccccsccccccccccccccccccccccccccccccccccccccccscccccccccccccccccccccccccccccccccccc" />
          <path
             d="m 2520.017,560.34564 c 11.3533,9.99945 13.8157,25.49659 14.7905,39.85523 0.4331,7.72796 0.4079,15.46956 0.397,23.20727 -9e-4,0.86355 0,1.7271 0,2.61682 -0.096,40.77014 -8.8329,79.5222 -23.1471,117.55359 -1.6116,4.29794 -3.1994,8.60466 -4.79,12.9104 -1.2919,3.49498 17.1917,-67.54345 17.5289,-63.83266 6.8363,75.22483 -7.9584,86.82547 -9.3475,90.61692 -4.4834,12.21365 18.1592,67.48553 28.6429,150.36343 69.3201,118.17976 -96.0342,-40.92151 -96.8497,-40.78272 -1.0398,13.98515 -18.7754,3.17455 -65.0367,-22.9473 0.5515,-6.86947 28.4918,-99.34895 30.5433,-105.91116 2.9499,-9.78528 6.9405,-14.05397 9.3312,-23.98758 0.1674,-0.69364 -13.6024,-37.62421 -13.4299,-38.33887 1.8489,-7.6821 3.6293,-25.13249 5.3091,-32.85338 5.5714,-25.60338 -12.5245,-6.66389 -1.7466,-30.49674 0.3175,-0.70528 -17.4835,-19.52902 -17.1564,-20.25566 1.3376,-2.93552 19.4178,-13.96372 21.2119,-16.65487 -12.1648,2.97473 -52.042,10.17983 -41.1971,-16.71718 10.8449,-26.89701 114.0187,-49.85646 144.9532,-24.34554 z"
             style="fill:#fc50b4;fill-opacity:1"
             id="path14"
             sodipodi:nodetypes="ccscccscccccscccccccc" />
          <path
             d="m 1506.8024,413.52325 c 3.8308,2.47617 7.415,5.18288 11,8 1.0248,0.77214 2.0496,1.54429 3.1054,2.33984 6.7903,5.11901 13.3259,10.49168 19.7891,16.01562 4.6368,3.96113 9.3742,7.79732 14.1055,11.64454 1.344,1.10252 2.6877,2.20541 4.0312,3.30859 1.427,1.16807 2.8541,2.33603 4.2813,3.50391 1.0051,0.82733 1.0051,0.82733 2.0305,1.67138 2.9247,2.38746 5.836,4.69381 8.9968,6.76221 2.9744,1.96112 5.1395,4.23327 7.6602,6.75391 2.6385,2.11004 5.3029,4.18023 7.9882,6.23046 0.6639,0.58395 1.3278,1.1679 2.0118,1.76954 v 2 c 0.5969,0.11174 1.1938,0.22349 1.8088,0.33862 2.4012,0.72477 3.4565,1.52243 5.2498,3.24341 0.551,0.52013 1.1021,1.04027 1.6699,1.57617 0.5639,0.54592 1.1279,1.09183 1.709,1.6543 1.1222,1.07056 2.2459,2.1396 3.3711,3.20703 0.536,0.51127 1.0721,1.02255 1.6245,1.54931 1.4283,1.30464 2.9496,2.50576 4.477,3.69287 0.6897,0.57364 1.3793,1.14727 2.0899,1.73829 v 2 c 0.7218,0.22687 1.4437,0.45375 2.1875,0.6875 3.3981,1.58581 5.2648,3.57373 7.8125,6.3125 3.5075,3.56733 7.1173,7.00382 10.8125,10.375 0.524,0.47969 1.0481,0.95938 1.5881,1.45361 3.546,3.23648 7.133,6.41936 10.783,9.53857 2.8535,2.56511 5.516,5.31587 8.2111,8.04541 5.4619,5.52778 10.9147,10.96517 16.8162,16.02881 6.186,5.38912 11.3249,11.49592 16.4468,17.88672 2.5801,3.21371 5.1812,6.41054 7.7798,9.60938 0.8297,1.02142 0.8297,1.02142 1.6762,2.06347 3.4481,4.24046 6.9022,8.4756 10.3863,12.68653 0.7528,0.91136 1.5056,1.82273 2.2812,2.76171 2.2991,2.6431 4.7246,5.09212 7.2188,7.55079 27.982,29.07505 51.6139,68.45441 51.4221,109.68017 -0.2068,9.02564 -1.551,16.75992 -4.4221,25.31983 -0.4404,1.39576 -0.8805,2.7916 -1.3204,4.1875 -6.3919,19.63699 -16.5238,43.77495 -35.6796,53.8125 -4.8836,1.76411 -9.9303,2.9117 -15,4 11.8775,5.44387 26.1296,5.2973 39,6 v 2 c -14.4477,7.06366 -28.9892,13.24035 -44.1875,18.5 -13.3328,4.71814 -25.8526,11.48339 -38.375,18 -29.2762,15.19631 -29.2762,15.19631 -40.25,19.875 -0.8689,0.37229 -1.7379,0.74459 -2.6331,1.12817 -8.1289,3.42393 -16.4046,6.39412 -24.7229,9.32129 -5.6078,1.98114 -11.0879,4.06471 -16.519,6.48804 -7.8721,3.48898 -16.57,7.11078 -25.3125,6.6875 2.428,-2.42805 4.0674,-2.68421 7.375,-3.5 5.3905,-1.33674 9.0651,-2.43791 12.5625,-6.875 1.7756,-2.16627 3.2623,-3.77874 5.5,-5.5 9.7607,-8.0943 15.6091,-21.26481 19.5625,-33.125 h 2 c 0.082,-0.88688 0.165,-1.77375 0.25,-2.6875 1.0168,-7.13239 3.6748,-14.01788 5.9023,-20.84375 2.6662,-8.57732 5.33,-17.44661 1.1602,-25.88282 -2.3002,-3.7573 -5.0186,-7.12647 -7.8125,-10.52343 -9.5,-11.81975 -9.5,-11.81975 -9.5,-18.0625 5.3904,0.46873 38.8589,30.53932 43.8383,32.64243 -3.1891,-0.64031 21.7779,13.68783 15.3232,-10.19394 1.0754,-1.2e-4 -12.7218,-12.31905 -11.6246,-12.31918 6.45,-0.0693 -5.6829,-5.08066 0.4631,-7.12931 1.7273,-7.91717 -0.2931,-12.64682 -4.5147,-19.4358 -1.7166,-2.56302 -3.4704,-5.09672 -5.2353,-7.6267 -5.9059,-8.67773 -11.011,-17.33931 -15.25,-26.9375 -0.2996,-0.67451 -0.5991,-1.34901 -0.9078,-2.04395 -9.3828,-21.38502 -15.7221,-43.68969 -19.6547,-66.70605 -2.2474,-12.29677 -7.0213,-21.65404 -14.0547,-31.78125 -7.3828,-10.63125 -7.3828,-10.63125 -7.3828,-15.46875 7.1597,0.32406 12.6109,3.62934 18.8125,7 1.5729,0.83918 1.5729,0.83918 3.1777,1.69531 1.9301,1.03036 3.8578,2.06506 5.7825,3.10547 1.3985,0.753 2.8066,1.48887 4.2273,2.19922 v -4 h 4 v -2 c 1.8957,-0.0272 3.7916,-0.0465 5.6875,-0.0625 1.0557,-0.0116 2.1114,-0.0232 3.1992,-0.0352 2.8374,0.089 5.3572,0.44826 8.1133,1.09766 -0.8624,-0.57106 -1.7248,-1.14211 -2.6133,-1.73047 -6.3886,-4.24033 -12.7543,-8.50889 -19.0676,-12.8606 -4.0954,-2.81919 -8.2065,-5.61499 -12.3191,-8.40893 -0.8872,-0.60538 -1.7744,-1.21076 -2.6885,-1.83448 -10.8431,-7.36508 -21.8111,-14.21962 -33.4365,-20.29052 -0.9941,-0.52014 -1.9881,-1.04028 -3.0122,-1.57618 -10.1808,-5.18612 -20.6537,-9.26845 -31.7378,-12.04882 -0.7889,-0.20754 -1.5778,-0.41508 -2.3907,-0.62891 -15.8983,-4.09343 -33.4582,-4.91516 -48.2343,3.12891 -6.2334,4.05566 -8.3499,8.65231 -10.0898,15.88049 -0.802,4.63236 -0.6935,9.29014 -0.6759,13.97888 0,1.66824 0,1.66824 -0.01,3.37018 0,3.59028 0.01,7.1802 0.024,10.77045 0,1.22074 0.01,2.44148 0.01,3.69921 0.084,31.25456 1.0502,63.01319 9.5541,93.30079 l 0.6497,2.33789 c 1.7172,6.0563 3.8004,11.91015 5.9832,17.81445 1.1753,3.45207 1.8858,6.82908 2.5087,10.41333 2.1559,10.60077 34.96,-4.0492 39.1883,5.85896 0.2828,0.66715 -12.2462,18.08805 -11.9549,18.77541 14.534,37.41435 -5.669,-56.20954 22.0652,-28.70805 1.7651,1.11866 12.8918,10.61529 14.6554,11.73624 1.1586,0.72655 17.9123,46.55299 19.0943,47.29421 0.719,0.46955 -21.2287,-33.55392 -20.4879,-33.07015 0.7438,0.38188 19.2267,13.08269 19.9929,13.47614 -33.245,13.96562 25.6297,11.03188 32.7583,12.68157 -9e-4,0.83853 5.9131,13.50325 5.9131,14.36719 -0.01,1.78554 17.2245,1.10728 17.2005,2.89266 -0.036,2.66219 -5.4613,5.81571 -5.4613,8.47811 -0.066,16.15906 -66.2003,89.25087 -70.4151,104.90204 5.2827,0.85955 10.4302,1.20083 15.7773,1.3164 1.2171,0.0312 1.2171,0.0312 2.4587,0.063 2.5671,0.0649 5.1343,0.12409 7.7015,0.18312 1.7507,0.0432 3.5013,0.0869 5.2519,0.13086 4.2701,0.10651 8.5403,0.20795 12.8106,0.30664 -15.1354,21.1271 -34.145,32.55041 -58,42 5.7936,-0.63934 11.3779,-1.66629 17.0625,-2.9375 8.2795,-1.80454 16.5182,-3.10605 24.9375,-4.0625 v 2 c -1.5396,1.3506 -3.1398,2.6323 -4.7617,3.88281 -5.9484,4.75981 -11.2236,9.96803 -16.5258,15.4263 -11.913,12.23249 -23.9466,22.95667 -38.7125,31.69089 -0.5688,0.34772 -1.1376,0.69545 -1.7236,1.05371 -14.3185,8.73036 -32.012,18.10966 -49.2764,15.94626 -7.414,-2.8334 -13.4836,-8.70819 -19.4336,-13.8281 -2.5589,-2.24925 -2.5589,-2.24925 -5.5664,-4.17187 -1.0432,-1.61646 -1.0432,-1.61646 -1.9727,-3.51954 -0.5133,-1.0393 -0.5133,-1.0393 -1.0371,-2.0996 -0.3474,-0.72381 -0.6948,-1.44762 -1.0527,-2.19336 -0.3513,-0.71221 -0.7025,-1.42442 -1.0645,-2.15821 -4.6639,-9.53064 -4.6639,-9.53064 -5.248,-13.71679 -0.7405,-3.92474 -2.2604,-7.16031 -3.9805,-10.75 -1.5283,-6.07624 3.0935,-11.84725 6.043,-16.9375 18.698,-33.26745 21.2245,-69.0569 23.7617,-106.46485 0.056,-0.80441 0.1122,-1.60883 0.1699,-2.43762 0.8174,-9.7719 0.8174,-9.7719 -0.7558,-19.34363 -0.2449,-0.786 -0.4899,-1.57201 -0.7422,-2.38183 -0.2668,-0.80341 -0.5337,-1.60682 -0.8086,-2.43457 -0.2733,-0.83822 -0.5466,-1.67643 -0.8281,-2.54004 -3.4532,-10.29126 -8.2684,-17.80651 -15.9219,-25.45996 -0.8456,-0.84563 -1.6913,-1.69125 -2.5625,-2.5625 -0.785,-0.75411 -0.785,-0.75411 -1.5859,-1.52344 -40.0246,-41.4734 -29.0982,-131.95931 -28.2527,-184.35169 0.8708,-47.71889 2.5093,-99.79444 18.8386,-145.12487 0.3777,-1.0725 0.7554,-2.145 1.1445,-3.25 6.0443,-15.84844 17.2412,-28.13909 32.461,-35.375 18.972,-7.68488 35.5851,-1.99349 52.3945,7.625 z"
             style="fill:#eb87b6;fill-opacity:1"
             id="path7"
             sodipodi:nodetypes="ccccccccccccccccccccccccccccccsccccccccccccccccccccccccccccccccccccccccccccccccccccccccccccccccccccccccccccscccccccccccccccccccccccccccccccscccccccc" />
          <path
             d="m 1526.5109,548.87916 c 1.1834,0.27844 2.3667,0.55688 3.5859,0.84375 8.9888,2.34315 17.1585,5.98307 25.4141,10.15625 1.2218,0.61005 1.2218,0.61005 2.4683,1.23242 10.8863,5.4584 21.2997,11.22414 31.2797,18.20215 3.7943,2.63756 7.6228,5.22476 11.4458,7.82031 2.1937,1.48966 4.3861,2.98118 6.5772,4.47461 6.5968,4.49569 13.2105,8.96284 19.9028,13.31543 2.7101,1.78184 5.151,3.53655 7.3262,5.95508 -1.0725,-0.30938 -2.145,-0.61875 -3.25,-0.9375 -5.5079,-1.3968 -11.0956,-1.70439 -16.75,-2.0625 v 2 l -4,1 v 2 c 1.9615,1.38938 3.9617,2.72604 6,4 l -2,1 c -2.1401,-1.07466 -4.1434,-2.20039 -6.1875,-3.4375 -1.2646,-0.74258 -2.5303,-1.48341 -3.7969,-2.22266 -0.658,-0.38559 -1.3161,-0.77118 -1.9941,-1.16845 -3.2891,-1.90593 -6.6158,-3.73744 -9.959,-5.54639 -0.6016,-0.33314 -1.2032,-0.66628 -1.823,-1.00952 -4.0271,-2.1685 -7.8365,-3.50209 -12.2395,-4.61548 3.4725,7.58027 -48.3758,-0.56109 -43.441,6.14852 6.9918,9.91456 17.9242,31.67399 20.1167,43.41093 6.422,33.69281 31.9951,36.76763 52.0983,64.73171 3.6041,5.0611 7.8282,23.77557 9.0812,29.90135 -0.9108,3.64305 19.3622,18.24512 16.3887,20.49042 -8.0306,3.43157 -11.6095,4.77462 -19.8064,1.73279 -1.1344,-0.55688 -91.1189,-78.11723 -92.2877,-78.69098 -3.9517,-1.77577 81.1658,79.92913 76.8502,79.27526 3.8872,10.35735 10.7695,18.59598 17.6523,27.125 3.5381,4.92252 2.8203,11.1059 2.3477,16.875 -1.0268,4.77149 -2.4895,9.36191 -4,14 -0.6779,2.16045 -1.3494,4.32285 -2.0208,6.48535 -0.4351,1.39629 -0.8735,2.79153 -1.3159,4.18555 -0.9807,3.09109 -1.9332,6.16821 -2.6633,9.3291 h -2 c -0.088,0.65227 -0.1753,1.30453 -0.2656,1.97656 -0.9875,4.06539 -2.6926,7.63045 -4.4844,11.39844 -0.3352,0.72961 -0.6703,1.45922 -1.0156,2.21094 -2.3012,4.88122 -4.8658,9.18656 -8.2344,13.41406 h -2 l -0.75,1.875 c -1.4777,2.5121 -2.6896,2.88607 -5.25,4.125 l -1,3 c -1.291,1.37433 -2.6257,2.70896 -4,4 l -2,2 c -2.3125,0.85156 -2.3125,0.85156 -5,1.625 -0.8869,0.26039 -1.7737,0.52078 -2.6875,0.78906 -2.3125,0.58594 -2.3125,0.58594 -4.3125,0.58594 0.1438,-2.43764 0.29,-4.87509 0.4375,-7.3125 0.039,-0.67096 0.079,-1.34191 0.1191,-2.0332 0.1837,-3.00969 0.3744,-6.00935 0.6951,-9.00806 0.873,-8.17543 0.9344,-16.31444 0.9336,-24.52734 0,-2.4441 0.021,-4.88777 0.039,-7.33179 0,-1.57096 0,-3.14193 0.01,-4.71289 0.011,-1.08297 0.011,-1.08297 0.022,-2.18782 -0.019,-4.33603 -0.5556,-7.88711 -2.2523,-11.8864 -1.8273,-1.7126 -1.8273,-1.7126 -4.1875,-2.875 -1.3303,-0.7425 -1.3303,-0.7425 -2.6875,-1.5 -2.2834,-1.18734 -4.5725,-2.3511 -6.875,-3.5 -0.6507,-0.33145 -1.3015,-0.6629 -1.9719,-1.00439 -1.2699,-0.64323 -2.5481,-1.27047 -3.8355,-1.87793 -8.9096,-4.49228 -13.8764,-13.09526 -19.1301,-21.24268 -4.3671,-6.66201 -8.8147,-13.21184 -13.625,-19.5625 -0.4931,-0.65251 -0.9863,-1.30501 -1.4944,-1.97729 -2.1625,-2.844 -4.3516,-5.6577 -6.5876,-8.44459 -9.8709,-12.51576 -16.7151,-26.84908 -21.8638,-41.87011 -0.8165,-2.36195 -1.6661,-4.71056 -2.519,-7.05957 -6.9493,-19.25952 -11.1096,-38.2514 -13.3477,-58.58594 -0.076,-0.67321 -0.1511,-1.34643 -0.229,-2.04004 -1.7104,-16.7329 -1.8587,-33.55698 -1.8862,-50.36035 -0.01,-3.62197 -0.041,-7.2434 -0.072,-10.86523 -0.01,-2.33854 -0.012,-4.67709 -0.016,-7.01563 -0.012,-1.06481 -0.025,-2.12961 -0.037,-3.22668 0.024,-8.18923 0.5918,-18.39397 6.5961,-24.65223 16.4723,-12.47243 36.7918,-10.82337 55.7695,-6.33984 z"
             style="fill:#fc50b4;fill-opacity:1"
             id="path13"
             sodipodi:nodetypes="cccccsccccccccccccccccccccccccccccsccccccccccccccccccscccccccccccccccccccccccc" />
          <path
             d="m 1908.5319,653.10269 c 3.7078,0 7.4147,-0.02 11.1224,-0.046 29.8654,-0.08 53.4542,5.9624 78.9707,21.5488 3.8917,2.376 7.8456,4.6166 11.875,6.75 1.1279,0.6072 2.2558,1.2143 3.4179,1.8399 4.1903,1.5092 6.1195,1.4849 10.3946,0.2226 3.1134,-1.7972 5.9513,-3.8912 8.8125,-6.0625 1.5036,-1.1198 3.01,-2.2358 4.5195,-3.3476 0.9858,-0.7446 0.9858,-0.7446 1.9915,-1.5042 1.6765,-1.0857 1.6765,-1.0857 3.6765,-1.0857 0,-0.66 0,-1.32 0,-2 2.0202,-0.9387 4.0412,-1.8759 6.0625,-2.8125 1.1253,-0.5221 2.2507,-1.0441 3.4101,-1.582 1.164,-0.5298 2.3281,-1.0596 3.5274,-1.6055 1.0802,-0.495 2.1604,-0.99 3.2734,-1.5 28.1728,-11.8538 63.4577,-11.5607 91.7266,-0.5 2.3415,0.9806 4.6751,1.9804 7,3 1.6055,0.6333 3.2124,1.2633 4.8203,1.8906 5.1432,2.0495 10.106,4.3803 15.0547,6.8594 1.3037,0.6531 1.3037,0.6531 2.6338,1.3194 6.8818,3.5062 13.2359,7.3858 19.4912,11.9306 1.046,0.7135 1.046,0.7135 2.1132,1.4414 9.8499,6.9284 17.8883,16.4156 25.586,25.5821 3.439,4.034 7.013,7.5509 11.043,10.9882 2.7909,2.4578 5.4764,5.0122 8.1328,7.6133 0.9255,0.8998 1.8511,1.7995 2.8047,2.7266 2.2228,2.5371 3.3188,4.4598 4.3203,7.6484 -13.107,0.6039 -26.0118,-1.1397 -38.8826,-3.5368 -7.5226,-1.3832 -14.7863,-1.8133 -22.4299,-1.7757 -1.1856,0 -2.3711,0.01 -3.5926,0.015 -8.7254,0.1166 -16.6886,0.808 -25.0949,3.2976 -1.137,0.3287 -2.2739,0.6574 -3.4453,0.9961 -14.9165,4.822 -27.5193,13.1695 -39.5547,23.0039 -1.3826,1.0944 -1.3826,1.0944 -2.793,2.211 -43.2726,34.593 -73.0432,82.5357 -79.457,137.914 -0.2776,2.626 -0.5265,5.2447 -0.75,7.875 -0.088,0.9094 -0.1752,1.8187 -0.2654,2.7556 -0.8323,9.3644 -0.8498,18.6662 -0.7971,28.0569 0,1.5788 0.01,3.1576 0.014,4.7363 0.011,3.8171 0.028,7.6342 0.049,11.4512 0.99,0 1.98,0 3,0 0.2475,-0.5233 0.495,-1.0467 0.75,-1.5859 0.9502,-1.8352 1.9876,-3.6255 3.0625,-5.3906 6.8608,-11.323 11.3108,-23.3215 15.9301,-35.6895 6.4887,-17.2057 14.0539,-33.4149 23.2574,-49.334 0.4969,-0.8596 0.9938,-1.7193 1.5058,-2.605 2.7971,-4.8191 5.6292,-9.6159 8.4942,-14.395 0.33,0.66 0.66,1.32 1,2 -0.8317,2.3983 -1.7273,4.7162 -2.6875,7.0625 -6.9522,17.9102 -9.4017,37.0378 -12.3125,55.9375 -0.192,1.1483 -0.384,2.2966 -0.5818,3.4798 -1.744,11.3083 -1.7729,22.5378 -1.7307,33.9577 0,1.0193 0,2.0386 0.01,3.0888 0.1268,42.06235 9.4548,78.65361 34.7406,112.83701 2.2379,3.0626 3.9436,6.2009 5.5664,9.6367 2.1421,3.0285 4.3785,5.3769 7.25,7.6875 0.9075,0.7631 1.815,1.5263 2.75,2.3125 0,0.66 0,1.32 0,2 0.5684,0.2462 1.1369,0.4924 1.7226,0.7461 2.6579,1.4634 4.522,3.2197 6.7149,5.3164 6.7352,6.1723 14.2621,11.0944 21.8593,16.1172 7.9489,5.3436 14.7804,11.2588 21.7032,17.8203 2.6323,2.3741 5.3103,4.6912 8,7 0.9874,0.8547 1.9748,1.7093 2.9922,2.5899 5.0368,4.3313 10.0618,8.5315 15.5078,12.3476 13.8745,9.9018 25.4363,22.8094 36.0625,36.0352 1.8152,2.2545 3.6471,4.4878 5.5,6.7109 20.3117,24.4728 39.1227,52.8528 51.9048,81.9981 2.3619,5.3023 4.8394,10.553 7.2827,15.8183 5.2574,11.3503 5.2574,11.3503 7.2695,16.0469 2.1948,5.1192 4.5704,10.1526 6.918,15.2031 2.1933,4.7473 4.3798,9.4978 6.5625,14.25 0.762,1.6588 0.762,1.6588 1.5395,3.3511 22.7301,49.6976 44.185,105.4996 43.523,160.9614 0,0.7522 -0.01,1.5044 -0.014,2.2793 -0.012,1.8028 -0.029,3.6055 -0.049,5.4082 -0.66,0 -1.32,0 -2,0 -3.494,-13.4838 -6.913,-26.9464 -9.5625,-40.625 -9.4375,-48.1272 -24.3562,-98.5372 -52.4375,-139.375 -0.4676,-0.6871 -0.9352,-1.3741 -1.417,-2.082 -3.4416,-5.0364 -6.9736,-10.0006 -10.583,-14.918 -0.4443,-0.6055 -0.8885,-1.2111 -1.3462,-1.8349 -7.7541,-10.4574 -16.5932,-19.8363 -25.6538,-29.1651 -0.7732,-0.7981 -0.7732,-0.7981 -1.562,-1.6123 -4.6595,-4.7908 -9.4397,-9.3445 -14.5201,-13.6846 -2.0051,-1.7805 -3.8632,-3.654 -5.7304,-5.5781 -3.8546,-3.9072 -7.9937,-7.3426 -12.2735,-10.7734 -2.9749,-2.4007 -5.8797,-4.8721 -8.789,-7.3516 -5.5636,-4.6398 -11.3556,-8.8058 -17.376,-12.8305 -1.856,-1.241 -3.705,-2.492 -5.5537,-3.7437 -1.2939,-0.8717 -2.5881,-1.7428 -3.8828,-2.6133 -0.8717,-0.5878 -0.8717,-0.5878 -1.761,-1.1875 -46.0342,-30.7109 -101.5386,-48.4979 -156.5515,-52.625 -0.6981,-0.058 -1.3961,-0.1157 -2.1153,-0.1753 -52.7741,-4.3547 -111.1389,4.0427 -157.8847,30.1753 -1.1633,0.6495 -1.1633,0.6495 -2.3501,1.312 -15.6763,8.8605 -29.7256,19.3674 -43.4507,30.981 -2.0077,1.5583 -3.886,2.6748 -6.1992,3.707 0,0.66 0,1.32 0,2 -1.2578,1.2344 -1.2578,1.2344 -3.125,2.75 -9.3952,8.0101 -18.1001,16.8774 -25.75,26.5664 -2.2253,2.8103 -4.5441,5.523 -6.875,8.2461 -28.1994,33.8392 -49.8377,74.1626 -62.25,116.4375 -0.2532,0.8542 -0.5063,1.7083 -0.7671,2.5884 -9.5509,32.68 -14.9381,66.1243 -18.7422,99.9062 -0.1267,1.0924 -0.1267,1.0924 -0.256,2.2068 -0.2319,2.0049 -0.4556,4.0107 -0.6788,6.0166 -0.4882,2.8824 -1.0596,4.8068 -2.5559,7.282 -0.99,0 -1.98,0 -3,0 -1.7739,-11.5299 -0.9425,-22.9365 0.1875,-34.5 0.098,-1.0033 0.098,-1.0033 0.1978,-2.0268 3.2514,-32.7386 10.7166,-65.1274 20.6147,-96.4732 0.2568,-0.8198 0.5137,-1.6397 0.7783,-2.4844 5.1914,-16.3139 12.2232,-31.9153 19.2217,-47.5156 0.4207,-0.9383 0.8414,-1.8765 1.2749,-2.8432 9.9298,-21.9594 22.2044,-42.599 34.7251,-63.1568 1.1915,-1.9621 2.383,-3.9244 3.5742,-5.8867 2.3098,-3.8019 4.6239,-7.6012 6.9414,-11.3984 2.3923,-3.9204 4.777,-7.8452 7.1562,-11.7735 6.306,-10.4061 12.6355,-20.7781 19.3282,-30.9414 0.596,-0.9096 1.192,-1.8192 1.8061,-2.7563 2.0792,-3.1688 4.1667,-6.3319 6.2564,-9.4937 0.6611,-1.0067 1.3222,-2.0133 2.0034,-3.0505 5.7384,-8.6403 11.8937,-16.7533 19.1216,-24.1995 6.4648,-6.8614 11.7526,-14.5303 17.185,-22.2129 7.0463,-9.9024 14.3154,-19.4059 22.6275,-28.2871 1.628,-1.8098 3.253,-3.6223 4.875,-5.4375 2.3173,-2.5873 4.6415,-5.1337 7.125,-7.5625 0,0.99 0,1.98 0,3 5.1536,-1.5711 8.7513,-4.795 12.8125,-8.1875 1.0744,-0.8905 1.0744,-0.8905 2.1706,-1.7991 1.4012,-1.1638 2.8001,-2.3303 4.1966,-3.4997 1.4022,-1.166 2.8257,-2.3064 4.2578,-3.4356 24.7178,-19.9802 36.1249,-56.5089 39.904,-86.81736 4.3159,-41.27065 -8.7388,-82.69015 -23.8415,-120.50685 -0.2827,-0.709 -0.5655,-1.418 -0.8567,-2.1485 -1.2086,-3.0278 -2.4193,-6.0544 -3.6472,-9.0744 -1.0069,-2.4772 -2.0022,-4.9588 -2.9961,-7.4411 -0.3152,-0.7655 -0.6304,-1.531 -0.9551,-2.3197 -2.1583,-5.43 -2.1583,-5.43 -1.0449,-8.7702 5.6778,5.4769 10.299,11.6875 15,18 0.4091,0.5484 0.8182,1.0967 1.2397,1.6616 17.4662,23.5587 29.9162,48.3115 39.8462,75.8814 1.1932,3.2073 2.5245,6.3304 3.9141,9.457 0.99,0 1.98,0 3,0 10.7023,-32.1068 -5.5834,-82.474 -19.8809,-111.1081 -8.001,-15.226 -19.636,-27.4568 -31.6191,-39.5794 -0.7,-0.7131 -1.4,-1.4262 -2.1211,-2.1609 -4.8252,-4.8324 -9.892,-9.0904 -15.3789,-13.1516 -1.0545,-0.7824 -2.1089,-1.5649 -3.1953,-2.3711 -24.2402,-17.0974 -51.8382,-26.7542 -81.6172,-26.8789 -1.2201,-0.021 -2.4402,-0.041 -3.6973,-0.062 -15.758,-0.068 -26.186,5.3019 -37.9707,15.4805 -9.8435,7.1575 -23.3757,8.0924 -35.207,8.1445 -0.7539,0.01 -1.5078,0.011 -2.2845,0.016 -4.101,-0.053 -7.3395,-0.5028 -11.028,-2.3289 2.0633,-15.8416 16.1668,-31.7072 25.4257,-44.418 1.823,-2.5101 3.5782,-5.0555 5.3047,-7.6328 6.9655,-10.3125 14.783,-19.3088 23.5147,-28.1679 1.4755,-1.4978 2.9337,-3.0126 4.3877,-4.5313 5.4038,-5.5781 11.2746,-10.4439 17.3672,-15.25 1.0222,-0.8276 2.0444,-1.6551 3.0976,-2.5078 24.6197,-19.7184 49.3161,-22.8628 80.1218,-22.8079 z"
             style="fill:#eb87b6;fill-opacity:1"
             id="path6" />
          <path
             d="m 2213.0186,942.66632 c 0.7908,0.005 1.5815,0.0105 2.3962,0.0159 1.281,0.005 1.281,0.005 2.5879,0.01 0.8979,0.008 1.7957,0.0168 2.7207,0.0254 0.9017,0.005 1.8034,0.009 2.7325,0.0137 2.235,0.0118 4.47,0.0283 6.705,0.0488 0,0.66 0,1.32 0,2 0.6149,-0.0116 1.2298,-0.0232 1.8633,-0.0352 0.8083,-0.009 1.6165,-0.018 2.4492,-0.0273 1.2008,-0.0174 1.2008,-0.0174 2.4258,-0.0352 2.2617,0.0977 2.2617,0.0977 5.2617,1.09766 -0.33,1.65 -0.66,3.3 -1,5 1.485,-0.495 1.485,-0.495 3,-1 0,0.66 0,1.32 0,2 0.6188,-0.18563 1.2375,-0.37125 1.875,-0.5625 2.125,-0.4375 2.125,-0.4375 4.125,0.5625 0.33,-0.99 0.66,-1.98 1,-3 20.7229,4.16416 36.9407,14.62527 53,27.99997 0.5053,0.4204 1.0107,0.8408 1.5313,1.274 6.4287,5.3605 12.7688,10.8052 18.9538,16.4467 1.5121,1.3704 3.0323,2.7319 4.5682,4.0755 7.9448,6.98545 15.3758,14.48165 22.843,21.96975 2.2932,2.2986 4.5918,4.5918 6.8908,6.8845 1.4815,1.4821 2.9626,2.9645 4.4434,4.4473 0.6762,0.6742 1.3524,1.3484 2.0491,2.043 4.4381,4.4596 8.625,9.0844 12.7204,13.8593 0.9733,1.1178 1.9471,2.2351 2.9219,3.3516 6.0188,6.9501 11.811,14.0345 17.4531,21.293 3.7833,4.8599 7.7015,9.6084 11.625,14.3554 -0.33,0.66 -0.66,1.32 -1,2 -1.1601,-1.1775 -1.1601,-1.1775 -2.3437,-2.3789 -4.9948,-5.0471 -9.9764,-10.0352 -15.3819,-14.6465 -8.1171,-7.0472 -15.8468,-14.4657 -23.3837,-22.1269 -0.7033,-0.7135 -1.4067,-1.427 -2.1313,-2.1622 -2.8946,-2.9396 -5.7873,-5.881 -8.6646,-8.8376 -19.9389,-20.4575 -43.6569,-41.59985 -73.7823,-42.16045 -9.7099,-0.01 -18.0988,2.0538 -25.2851,8.96105 -13.1152,15.2125 -27.4217,39.8464 -27.0274,60.3515 0.3287,-0.6174 0.6575,-1.2349 0.9961,-1.8711 8.2243,-14.6431 20.2321,-22.6824 36.0664,-27.5039 23.6787,-6.006 46.6008,-5.3687 68.0977,7.2266 7.0252,4.5505 13.4721,9.7295 19.8398,15.1484 1.1263,0.9506 2.2526,1.9011 3.3789,2.8516 5.2067,4.4152 10.3548,8.8604 15.3145,13.5527 12.4203,11.706 25.4048,17.5483 42.0801,20.8574 7.1803,1.643 14.4532,5.1134 20.2265,9.7383 0,0.66 0,1.32 0,2 -13.4484,2.1608 -26.6133,0.8556 -40,-1 0.4615,0.4873 0.923,0.9746 1.3985,1.4766 4.2288,4.5965 7.9793,9.3433 11.539,14.4609 4.27,6.1194 8.9681,11.6049 14.0625,17.0625 1.1718,1.3498 2.3388,2.7037 3.5,4.0625 3.9462,4.5336 8.2156,8.7264 12.5,12.9375 5,5 5,5 6.7032,6.8438 33.3064,35.0861 88.0615,58.3906 135.2968,65.1562 0.6765,0.103 1.3529,0.206 2.0498,0.312 23.584,3.4225 49.6479,3.4826 73.2627,0.3755 13.8676,-1.7177 23.2961,4.9661 34.2559,12.625 5.0641,3.5144 10.1843,6.9463 15.3066,10.375 0.5742,0.3845 1.1483,0.7689 1.7398,1.165 8.5499,5.7127 17.201,11.2173 26.0102,16.5225 1.0118,0.6119 2.0235,1.2238 3.066,1.8543 8.5069,5.0612 15.8228,9.3135 25.8715,9.5207 0.7226,0.03 1.4451,0.059 2.1895,0.09 1.7488,0.07 3.4984,0.1173 5.248,0.1602 0,0.99 0,1.98 0,3 -0.9526,0.1212 -1.9052,0.2423 -2.8867,0.3672 -1.2542,0.1676 -2.5085,0.3351 -3.8008,0.5078 -1.2413,0.1624 -2.4827,0.3248 -3.7617,0.4922 -3.1469,0.5608 -5.6128,1.4486 -8.5508,2.6328 -24.1188,1.8054 -57.696,-25.9947 -76,-40 0.3751,0.7876 0.7503,1.5752 1.1368,2.3867 2.5465,5.4201 4.9881,10.7989 7.0507,16.4258 11.4783,30.4358 26.0918,54.7768 51.8125,75.1875 1.1458,0.9347 2.2903,1.871 3.4336,2.8086 8.6321,7.0452 17.5531,13.5677 26.7144,19.9062 2.4221,1.6808 4.8231,3.391 7.227,5.0977 4.3311,3.0511 8.8234,5.8027 13.375,8.5117 2.3458,1.7471 3.2155,2.9779 4.25,5.6758 -6.228,-0.3533 -10.3791,-3.4998 -15.4375,-6.8125 -10.5288,-6.6785 -21.31,-12.5251 -32.4448,-18.1228 -2.4624,-1.2381 -4.9236,-2.4786 -7.3848,-3.719 -5.991,-3.0176 -11.986,-6.0272 -17.9829,-9.0332 -1.0007,-0.5019 -2.0014,-1.0037 -3.0325,-1.5207 -2.8681,-1.437 -5.7378,-2.8708 -8.6081,-4.3035 -0.874,-0.438 -1.748,-0.876 -2.6485,-1.3272 -1.2109,-0.6032 -1.2109,-0.6032 -2.4462,-1.2185 -0.7056,-0.3524 -1.4113,-0.7048 -2.1383,-1.0679 -2.0267,-0.9883 -2.0267,-0.9883 -4.8764,-1.8747 4.1506,16.3256 20.2866,35.4845 34,45 5.7359,3.1444 11.5872,4.8478 18,6 -11.2978,5.8837 -23.278,4.7664 -35.3203,1.8516 -2.6797,-0.8516 -2.6797,-0.8516 -5.6797,-2.8516 0.33,1.32 0.66,2.64 1,4 -6.1612,4.9258 -12.6397,8.4617 -19.75,11.8125 -0.8157,0.3847 -1.6314,0.7694 -2.4719,1.1658 -6.5719,3.0383 -12.573,5.0328 -19.7781,6.0217 -0.33,0.33 -0.66,0.66 -1,1 1.0932,0.2475 2.1863,0.495 3.3125,0.75 3.2249,0.8034 6.273,1.8107 9.375,3 6.5121,2.4397 13.1833,4.2737 19.8758,6.1435 4.5205,1.2641 9,2.5664 13.4367,4.1065 -1.5905,4.7716 -5.6806,5.8201 -10,8 -0.66,0.3648 -1.32,0.7296 -2,1.1055 -16.1348,8.2249 -35.8771,6.2705 -53.4446,6.1005 -3.5672,-0.031 -7.1345,-0.044 -10.7019,-0.06 -6.9513,-0.032 -13.9024,-0.083 -20.8535,-0.1465 0,0.66 0,1.32 0,2 0.7567,0.2282 1.5134,0.4563 2.293,0.6914 3.0234,1.0673 5.8909,2.232 8.8203,3.5234 32.536,14.3418 75.7518,32.6627 111.8867,24.7852 0.66,-0.33 1.32,-0.66 2,-1 1.8738,-0.07 3.75,-0.084 5.625,-0.062 1.5044,0.014 1.5044,0.014 3.0391,0.027 0.7709,0.012 1.5417,0.023 2.3359,0.035 -3.6296,3.6296 -9.1649,4.1269 -14.0344,5.4041 -1.9712,0.5185 -3.9382,1.0513 -5.905,1.5861 -15.6197,4.1872 -31.1588,6.397 -47.2613,7.7169 -4.8397,0.3984 -9.677,0.8246 -14.5141,1.2538 -0.9646,0.086 -1.9291,0.1711 -2.9229,0.2593 -8.6632,0.7818 -17.2945,1.7599 -25.9248,2.8423 -0.6627,0.083 -1.3254,0.1654 -2.0081,0.2506 -3.2263,0.403 -6.4522,0.8092 -9.6779,1.2167 -6.1635,0.7725 -12.3307,1.5078 -18.5015,2.2202 -1.0526,0.1277 -2.1052,0.2554 -3.1897,0.387 -20.3615,2.3233 -20.3615,2.3233 -26.0603,-1.137 0,0.66 0,1.32 0,2 0.66,0.2062 1.32,0.4125 2,0.625 8.2878,3.7985 14.352,10.5691 20.4434,17.1602 4.0112,4.1743 6.8205,6.1813 12.5566,7.2148 0,0.66 0,1.32 0,2 -0.7898,0.2913 -1.5796,0.5826 -2.3933,0.8828 -8.0061,3.0083 -15.7087,6.4258 -23.4192,10.1172 -11.7951,5.578 -23.7504,10.6078 -35.9113,15.334 -7.9985,3.1403 -15.5242,6.7722 -23.0406,10.9382 -7.819,4.1753 -16.3331,6.209 -25.2356,5.7278 0,0.66 0,1.32 0,2 9.597,-1.053 9.597,-1.053 18.8125,-3.75 6.0768,-2.2364 11.0859,-0.2086 16.75,2.375 0.8044,0.4538 1.6088,0.9075 2.4375,1.375 -2.4575,2.7709 -5.126,4.2579 -8.375,6 -6.6975,3.8317 -12.1802,8.5317 -17.9629,13.5737 -8.8393,7.5851 -18.3121,14.4186 -27.697,21.3023 -6.7346,4.942 -13.4069,9.9488 -19.9651,15.124 -0.6459,0.5092 -1.2919,1.0183 -1.9575,1.543 -7.3829,5.8438 -14.5731,11.6764 -21.105,18.4804 -2.4995,2.55 -5.1857,4.8342 -7.8984,7.1524 -2.3241,2.0792 -4.4867,4.2797 -6.6641,6.5117 -3.2602,3.3111 -6.3783,5.9555 -10.375,8.3125 0.1417,-1.4379 0.2885,-2.8753 0.4375,-4.3125 0.081,-0.8005 0.1625,-1.601 0.2461,-2.4258 0.3164,-2.2617 0.3164,-2.2617 1.3164,-5.2617 0.153,-2.5106 0.257,-4.9989 0.3164,-7.5117 0.021,-0.7283 0.042,-1.4565 0.063,-2.2068 0.065,-2.3229 0.1243,-4.6459 0.1832,-6.969 0.043,-1.5762 0.087,-3.1524 0.1308,-4.7285 0.107,-3.8612 0.2083,-7.7226 0.3067,-11.584 -0.3893,1.1627 -0.7786,2.3255 -1.1797,3.5234 -9.1571,26.5268 -24.8237,48.0424 -43.8203,68.4766 -0.934,1.0151 -0.934,1.0151 -1.8868,2.0508 -14.8759,15.562 -32.5106,24.4768 -53.1132,29.9492 -1.271,0.3416 -2.5421,0.6832 -3.8516,1.0351 -19.4158,4.3941 -40.0038,2.9045 -59.1484,-2.0351 -1.013,-0.2569 -1.013,-0.2569 -2.0464,-0.5191 -16.0927,-4.2638 -31.2246,-12.8734 -43.9536,-23.4809 -0.5762,-0.4776 -1.1525,-0.9552 -1.7461,-1.4473 -7.9018,-6.5737 -15.5721,-13.2154 -22.2539,-21.0527 -5.4067,-6.2831 -11.4274,-12.0129 -17.3213,-17.8335 -1.4136,-1.4033 -2.81,-2.824 -4.2022,-4.2485 -5.5974,-5.465 -11.458,-9.9197 -18.1015,-14.043 -0.8198,-0.5136 -1.6396,-1.0272 -2.4842,-1.5564 -6.9446,-4.3131 -14.0217,-8.3756 -21.1372,-12.3984 -6.988,-3.9568 -13.8507,-8.085 -20.6833,-12.303 -3.9486,-2.4365 -7.9164,-4.8402 -11.8907,-7.2344 -34.2627,-20.6526 -34.2627,-20.6526 -46.1796,-30.8828 -0.7478,-0.5101 -1.4955,-1.0201 -2.2659,-1.5457 -3.7378,-2.7863 -6.3332,-4.8499 -7.491,-9.4826 -0.2039,-3.552 -0.1306,-6.9822 0.069,-10.5342 0.039,-1.2498 0.078,-2.4997 0.1184,-3.7874 0.1322,-3.556 0.3329,-7.0996 0.5691,-10.6501 0.077,-1.2641 0.077,-1.2641 0.1553,-2.5537 0.708,-10.2225 2.6551,-21.5338 10.0947,-29.0557 5.6827,-4.712 12.6084,-5.9989 19.625,-7.6406 1.3248,-0.3259 2.649,-0.654 3.9727,-0.9844 2.5584,-0.6373 5.1179,-1.2682 7.6789,-1.895 33.8625,-8.4876 66.2705,-27.9582 91.4734,-51.8706 0.5053,-0.4728 1.0107,-0.9455 1.5313,-1.4326 12.7075,-11.9515 21.8618,-25.4747 30.4687,-40.5674 0.3428,-0.5936 0.6855,-1.1872 1.0386,-1.7988 9.4058,-16.4072 15.7785,-33.7872 19.9614,-52.2012 0.2462,-1.0055 0.4925,-2.0109 0.7461,-3.0469 4.3604,-20.8094 1.6056,-41.5063 -9.4492,-59.6054 -28.2396,-42.3224 -85.4954,-62.9372 -133.0898,-72.7339 -8.3471,-1.5975 -16.7601,-2.7033 -25.2071,-3.6138 -0.7682,-0.094 -1.5365,-0.1885 -2.3281,-0.2856 -9.8913,-1.0885 -19.8584,-0.9583 -29.7969,-0.9644 -0.9816,-7e-4 -1.9633,-10e-4 -2.9747,0 -15.1716,0.017 -29.9361,0.5291 -44.9003,3.2521 -0.9123,0.1609 -1.8246,0.3219 -2.7646,0.4877 -47.5969,8.6714 -102.9901,27.2803 -132.2354,68.5123 -12.709,19.5364 -16.7401,39.6458 -12.0312,62.5312 5.7885,25.9104 16.424,52.5559 33.0312,73.4688 0.651,0.8533 1.302,1.7067 1.9727,2.5859 9.5043,12.1157 20.7422,23.1449 33.0273,32.4141 0.9402,0.7142 0.9402,0.7142 1.8995,1.4428 10.8516,8.1961 22.105,15.4475 33.8701,22.2583 1.934,1.1262 3.8508,2.2747 5.7617,3.4395 16.6148,9.9205 34.6887,17.1922 52.7641,23.9797 22.2254,8.4556 22.2254,8.4556 26.814,18.2468 4.3803,10.9508 5.0866,21.9153 5.2656,33.5704 0.039,1.4932 0.039,1.4932 0.079,3.0166 0.014,5.9129 -0.3381,9.4929 -4.4541,14.0459 -5.7576,5.6859 -12.0516,10.336 -18.8125,14.75 -0.9065,0.5978 -1.813,1.1956 -2.747,1.8115 -9.3132,6.0937 -18.8389,11.8137 -28.4405,17.4385 -0.7742,0.4539 -1.5485,0.9078 -2.3462,1.3754 -1.5125,0.8866 -3.025,1.773 -4.5376,2.6595 -24.4696,14.3489 -43.3232,31.9857 -63.153,52.0979 -2.2582,2.2881 -4.5224,4.5702 -6.7874,6.8515 -0.6926,0.7061 -1.3852,1.4121 -2.0988,2.1396 -0.9579,0.963 -0.9579,0.963 -1.9351,1.9454 -0.5604,0.5678 -1.1207,1.1356 -1.6981,1.7206 -1.4438,1.2101 -1.4438,1.2101 -3.4438,1.2101 0,0.6599 0,1.32 0,2 -2.9654,2.7573 -6.1838,5.2083 -9.3662,7.7104 -1.5993,1.2624 -3.1834,2.5421 -4.7666,3.8247 -7.497,6.0046 -15.3376,11.037 -23.8672,15.4648 -0.6229,0.3271 -1.2458,0.6542 -1.8877,0.9913 -17.3759,8.9996 -36.4112,16.2996 -56.1123,17.0087 -0.9129,0.041 -1.8259,0.082 -2.7666,0.1241 -36.3803,1.4371 -70.869,-7.6041 -98.1401,-32.3594 -23.0308,-21.3796 -36.2722,-46.7991 -47.6831,-75.8154 -7.5563,-18.956 -20.4607,-33.6265 -37.4102,-44.9493 -0.9165,-0.6226 -1.833,-1.2452 -2.7773,-1.8867 -17.383,-11.2613 -36.902,-18.8929 -56.2227,-26.1133 -0.6444,-0.2421 -1.2889,-0.4843 -1.9529,-0.7338 -1.2636,-0.4748 -2.5276,-0.9486 -3.7919,-1.4214 -1.7407,-0.652 -3.4802,-1.3069 -5.2193,-1.9629 -31.6347,-11.9064 -63.5413,-21.1069 -96.4812,-28.5733 -1.1631,-0.2646 -2.3263,-0.5293 -3.5247,-0.802 -2.135,-0.4832 -4.2714,-0.9603 -6.4096,-1.4292 -19.1754,-4.303 -34.3747,-13.1748 -50.8196,-23.5578 -8.7419,-5.5166 -17.533,-10.9214 -26.8008,-15.5196 1.0008,-0.022 1.0008,-0.022 2.0217,-0.044 19.7877,-0.4785 38.9535,-2.3763 58.4158,-5.9558 0.846,-0.1538 1.6921,-0.3076 2.5637,-0.466 14.4217,-2.7952 23.7187,-9.3379 31.9988,-21.534 9.3012,-14.5379 13.9677,-30.3889 16.9883,-47.2617 0.1706,-0.9464 0.3412,-1.8927 0.517,-2.8678 1.6452,-9.3509 2.855,-18.7427 4.0169,-28.1637 5.5811,-44.7942 14.1086,-86.9913 51.6575,-116.5388 0.9307,-0.7154 1.8614,-1.4309 2.8203,-2.168 0.8895,-0.7051 1.7789,-1.4102 2.6953,-2.1367 15.8877,-12.3251 33.6162,-22.0269 51.0279,-31.9873 16.3483,-9.3593 32.462,-19.0147 48.3969,-29.062 11.8074,-7.4372 23.6646,-14.7519 35.761,-21.7102 5.9765,-3.4384 11.9362,-6.9028 17.8689,-10.4163 0.8219,-0.4796 1.6437,-0.9592 2.4905,-1.4533 5.0507,-3.0061 9.3998,-6.2883 13.7595,-10.2342 -0.7431,-3.4645 -1.3454,-4.6223 -4.3125,-6.625 -3.1621,-2.2231 -6.117,-4.5706 -9.0298,-7.1133 -12.6592,-10.9371 -22.2186,-12.3294 -38.6577,-11.2617 -1.4882,0.1621 -2.9753,0.3349 -4.4609,0.5196 -5.2027,0.6286 -10.3677,0.5903 -15.6016,0.5429 -0.961,0 -1.922,-0.01 -2.9121,-0.014 -2.3419,-0.012 -4.6836,-0.028 -7.0254,-0.049 0,-2.64 0,-5.28 0,-8 6.1756,-3.057 12.3088,-4.0806 19.0625,-5.25 16.502,-3.1236 27.7035,-9.4695 39.9375,-20.75 0.9127,-0.8391 1.8253,-1.6783 2.7656,-2.5429 1.3226,-1.2163 1.3226,-1.2163 2.6719,-2.4571 20.5602,-18.7477 48.6375,-36.6508 77.6524,-36.2148 27.23,2.0103 44.2947,15.4226 61.9101,35.2148 -0.8584,-21.4174 -12.0181,-43.0206 -26,-59 -0.9977,-1.1447 -0.9977,-1.1447 -2.0156,-2.3125 -5.2818,-5.6561 -10.5044,-10.10225 -18.3633,-11.12895 -27.5112,-0.8893 -49.6965,15.40115 -70.0234,31.93835 -4.486,3.6478 -9.0735,7.129 -13.7227,10.5656 -6.2074,4.5997 -12.1317,9.445 -17.9883,14.4805 -3.146,2.6778 -6.3771,5.2104 -9.6523,7.7266 -8.4342,6.532 -16.4142,13.4851 -24.2344,20.7304 -0.66,-0.33 -1.32,-0.66 -2,-1 0.5685,-0.5568 1.137,-1.1137 1.7227,-1.6875 8.3924,-8.2943 15.8437,-17.1586 23.2773,-26.3125 2.9882,-3.6765 5.9877,-7.3432 9,-11 0.8083,-0.9848 1.6165,-1.9697 2.4492,-2.9843 11.4634,-13.8348 23.7897,-28.2249 37.8633,-39.4532 4.1464,-3.32225 4.1464,-3.32225 8.2383,-6.71095 16.1219,-13.5531 34.698,-27.2007 54.4492,-34.8516 1.1653,-0.4666 2.3306,-0.9332 3.5313,-1.414 28.8998,-11.13915 60.5547,-16.06847 89.6953,-3.1563 21.7957,10.3043 36.6951,26.2479 45.0312,49.00395 1.0111,3.1793 1.9402,6.3278 2.7422,9.5664 0.1766,0.6985 0.3532,1.3969 0.5352,2.1165 1.6826,7.3457 1.8495,14.5566 1.8398,22.071 0,1.9712 0,1.9712 -0.01,3.9822 -0.21,23.5521 -4.3691,47.8015 -20.3701,65.8303 -1.5305,1.4907 -3.0727,2.9695 -4.625,4.4375 -8.2089,8.0332 -14.5013,17.745 -21.1587,27.0576 -5.9173,8.2571 -11.7718,16.3148 -18.8413,23.6299 -10.3485,10.7121 -18.2656,23.3963 -26.1694,35.9629 -1.3278,2.1059 -2.6666,4.2045 -4.0064,6.3028 -6.1837,9.7068 -12.182,19.5108 -18.0781,29.3945 -3.2769,5.4885 -6.6038,10.9459 -9.9336,16.4023 -1.7853,2.9325 -3.5696,5.8655 -5.3535,8.7989 -1.2343,2.0282 -2.47,4.0555 -3.707,6.082 -39.8223,65.3019 -66.8358,135.4844 -74.127,211.9316 -0.1468,1.5073 -0.1468,1.5073 -0.2966,3.045 -0.6013,6.5869 -0.8308,13.0928 -0.7659,19.705 0.01,1.3497 0.01,1.3497 0.014,2.7266 0.012,2.1745 0.03,4.349 0.049,6.5234 0.99,-0.33 1.98,-0.66 3,-1 2.208,-7.3466 2.7592,-15.0041 3.5737,-22.6073 1.7628,-16.2761 4.2349,-32.3301 7.4263,-48.3927 0.2295,-1.1675 0.4589,-2.3351 0.6953,-3.5381 3.2621,-16.4223 7.2213,-32.5068 12.3047,-48.4619 0.4034,-1.274 0.4034,-1.274 0.815,-2.5737 13.4521,-41.8703 35.7288,-80.0107 64.185,-113.4263 0.451,-0.5398 0.902,-1.0796 1.3667,-1.6357 6.6216,-7.9231 13.5438,-15.4741 20.8208,-22.8018 0.7432,-0.7523 1.4863,-1.5046 2.252,-2.2798 0.6941,-0.6901 1.3883,-1.3802 2.1035,-2.0913 0.619,-0.6167 1.238,-1.2334 1.8757,-1.8689 1.5813,-1.3225 1.5813,-1.3225 3.5813,-1.3225 0,-0.66 0,-1.32 0,-2 3.4444,-3.251 7.2718,-6.0815 11,-9 0.6481,-0.5109 1.2962,-1.0219 1.9639,-1.5483 41.3224,-32.4956 89.0733,-50.8344 141.4302,-56.1853 1.6878,-0.1725 3.3745,-0.3565 5.0595,-0.5542 6.8112,-0.7701 13.5702,-0.9045 20.4214,-0.8997 1.812,10e-4 1.812,10e-4 3.6606,0 17.8366,0.1176 35.8744,1.096 53.4644,4.1851 1.6015,0.2568 3.2031,0.5133 4.8047,0.7695 69.1065,11.4292 134.6637,44.6261 183.7617,94.793 2.0212,2.0244 4.0642,3.9049 6.2461,5.75 9.0475,7.739 17.6492,16.474 25.1875,25.6875 0.6449,0.7821 0.6449,0.7821 1.3027,1.5801 7.0105,8.5267 13.6226,17.1946 19.6973,26.4199 0.3833,0.5773 0.7667,1.1547 1.1616,1.7495 11.6439,17.6444 21.189,36.5565 28.8384,56.2505 0.4298,1.1031 0.4298,1.1031 0.8682,2.2285 2.1438,5.5559 4.1551,11.1542 6.1318,16.7715 0.3521,0.9897 0.7041,1.9793 1.0669,2.999 8.4733,23.9666 14.1897,48.3204 18.8621,73.2666 1.525,8.1001 3.2518,16.0765 5.4069,24.0313 0.6641,2.7031 0.6641,2.7031 0.6641,5.7031 0.66,0 1.32,0 2,0 -3.2429,-63.2104 -22.2151,-119.1835 -48.0625,-176.5 -0.632,-1.4022 -0.632,-1.4022 -1.2768,-2.8327 -1.207,-2.6723 -2.4191,-5.3421 -3.6333,-8.0111 -0.3621,-0.8008 -0.7241,-1.6015 -1.0971,-2.4266 -1.7815,-3.8978 -3.6723,-7.5789 -5.9303,-11.2296 -0.7686,-1.9012 -1.4949,-3.8198 -2.1875,-5.75 -3.1303,-8.3131 -6.9299,-16.266 -10.8125,-24.25 -0.4856,-1.004 -0.4856,-1.004 -0.981,-2.0283 -14.1034,-29.0674 -31.0319,-57.3277 -52.019,-81.9717 -1.4403,-1.7686 -2.8777,-3.5395 -4.3125,-5.3125 -11.7668,-14.3543 -23.4529,-27.7469 -38.5312,-38.7656 -6.1658,-4.5108 -11.8063,-9.2336 -17.3594,-14.4685 -4.2784,-4.022 -8.7319,-7.7623 -13.3164,-11.4339 -2.232,-1.8172 -4.3576,-3.7025 -6.4805,-5.6445 -2.8464,-2.5193 -5.7664,-4.5656 -9,-6.5625 -10.2219,-6.3156 -21.8723,-13.8827 -30,-22.8125 0,-0.66 0,-1.32 0,-2 -1.32,-0.66 -2.64,-1.32 -4,-2 0,-0.66 0,-1.32 0,-2 -0.99,-0.33 -1.98,-0.66 -3,-1 -1.845,-1.8762 -3.3684,-3.9274 -5,-6 0.33,-0.66 0.66,-1.32 1,-2 0.6664,0.6896 1.3329,1.3793 2.0195,2.0898 6.329,6.4529 12.829,12.36 19.9805,17.9102 0.8996,0.7062 0.8996,0.7062 1.8174,1.4267 8.0775,6.3214 16.1649,11.9069 25.1709,16.8155 3.7859,2.2097 6.7785,4.8185 10.0117,7.7578 0.66,0 1.32,0 2,0 -0.5742,-3.4986 -1.7352,-5.0478 -4.3125,-7.4375 -2.1087,-2.0102 -3.9433,-3.8881 -5.75,-6.1875 -1.93,-2.5418 -1.93,-2.5418 -4.875,-4.6875 -6.0746,-4.9096 -9.0986,-12.4995 -12,-19.5625 -0.3399,-0.8223 -0.6798,-1.6445 -1.03,-2.4917 -10.4821,-25.7464 -18.0434,-54.4469 -8.0325,-81.63335 0.3738,-1.0403 0.7477,-2.0806 1.1328,-3.1523 5.5565,-14.296 14.1078,-27.9012 26.8672,-36.8477 2.8125,0.25 2.8125,0.25 5,1 0.33,-0.66 0.66,-1.32 1,-2 2.4375,-1.6875 2.4375,-1.6875 5,-3 0.66,0.33 1.32,0.66 2,1 0,0.66 0,1.32 0,2 1.32,0.66 2.64,1.32 4,2 0,-0.66 0,-1.32 0,-2 -0.66,0 -1.32,0 -2,0 1.074,-2.9152 1.7781,-4.77811 4,-7 3.625,-0.125 3.625,-0.125 7,0 0.2436,-0.62391 0.4873,-1.24782 0.7383,-1.89063 1.9384,-3.24075 4.3844,-3.5394 7.8672,-4.58594 3.2288,-0.70582 6.101,-0.66067 9.3945,-0.52343 1,-1 1,-1 2.8577,-1.11353 z"
             style="fill:#fc50b4;fill-opacity:1"
             id="path3" />
          <path
             d="m 1874.1196,961.92355 c 17.4619,12.8229 28.4378,29.6226 33.6797,50.78905 0.1766,0.6984 0.3532,1.3968 0.5351,2.1164 1.6827,7.3457 1.8495,14.5566 1.8399,22.0711 0,1.3141 0,2.6282 0,3.9821 -0.21,23.5521 -4.3692,47.8015 -20.3701,65.8304 -1.5306,1.4906 -3.0728,2.9694 -4.625,4.4375 -8.2089,8.0331 -14.5013,17.7449 -21.1587,27.0576 -5.9173,8.257 -11.7719,16.3148 -18.8413,23.6299 -10.1381,10.4941 -17.903,22.8356 -25.5352,35.2148 -1.8398,2.6602 -1.8398,2.6602 -4.8398,4.6602 0.4331,-0.8353 0.4331,-0.8353 0.875,-1.6875 1.1663,-2.3975 2.159,-4.8285 3.125,-7.3125 0.66,0 1.32,0 2,0 0.2024,-0.651 0.4047,-1.302 0.6133,-1.9727 2.3183,-5.0612 5.9079,-9.3138 9.3066,-13.7012 3.2272,-4.3285 3.2272,-4.3285 4.2871,-9.5136 -1.5498,-3.6112 -3.7807,-5.8631 -6.707,-8.375 -0.5439,-0.4767 -1.0878,-0.9535 -1.6482,-1.4446 -6.7669,-5.7978 -12.5139,-9.9084 -21.7581,-9.4929 -5.0633,0.8183 -9.7939,2.534 -14.6054,4.2539 -26.3252,9.4039 -55.9056,-1.3899 -80.0391,-12.6328 -1.484,-0.7051 -2.9671,-1.4122 -4.4492,-2.1211 -0.7314,-0.3441 -1.4628,-0.6881 -2.2163,-1.0425 -8.9477,-4.2565 -16.5116,-8.982 -23.8738,-15.6316 -6.6804,-6.0326 -14.1204,-12.4457 -23.4802,-12.4587 -0.8972,-10e-4 -1.7944,0 -2.7188,0 -0.9358,0 -1.8717,0.01 -2.8359,0.012 -0.9127,0 -1.8253,-0.01 -2.7657,-0.012 -4.241,0.01 -8.3874,0.1127 -12.5976,0.6406 -5.1942,0.6472 -10.3468,0.6059 -15.5742,0.5586 -0.961,0 -1.922,-0.01 -2.9121,-0.014 -2.3419,-0.012 -4.6836,-0.028 -7.0254,-0.049 0,-2.64 0,-5.28 0,-8 6.1755,-3.057 12.3088,-4.0807 19.0625,-5.25 16.502,-3.1236 27.7035,-9.4696 39.9375,-20.75 0.9126,-0.8392 1.8253,-1.6784 2.7656,-2.543 0.8817,-0.8108 1.7634,-1.6216 2.6719,-2.457 20.5601,-18.7478 48.6374,-36.6508 77.6523,-36.2149 27.2301,2.0103 44.2947,15.4226 61.9102,35.2149 -0.8584,-21.4174 -12.0181,-43.0207 -26,-59 -0.6652,-0.7632 -1.3303,-1.5263 -2.0157,-2.3125 -5.2818,-5.6561 -10.5044,-10.10226 -18.3632,-11.12886 -27.5113,-0.8893 -49.6966,15.40096 -70.0235,31.93816 -4.4859,3.6478 -9.0735,7.1291 -13.7226,10.5657 -6.2075,4.5997 -12.1318,9.445 -17.9883,14.4804 -3.1461,2.6778 -6.3772,5.2104 -9.6524,7.7266 -8.4341,6.5321 -16.4142,13.4851 -24.2343,20.7305 -0.66,-0.33 -1.32,-0.66 -2,-1 0.5684,-0.5569 1.1369,-1.1138 1.7226,-1.6875 8.3925,-8.2944 15.8438,-17.1586 23.2774,-26.3125 2.9881,-3.6766 5.9876,-7.3433 9,-11 0.8082,-0.9849 1.6165,-1.9697 2.4492,-2.9844 11.4634,-13.8348 23.7896,-28.2249 37.8633,-39.4531 4.1464,-3.32226 4.1464,-3.32226 8.2383,-6.71095 16.1218,-13.55309 34.6979,-27.20064 54.4492,-34.85153 1.1653,-0.46664 2.3306,-0.93328 3.5312,-1.41406 34.3889,-13.25469 71.8761,-16.62521 103.7891,4.62509 z"
             style="fill:#232b2d"
             id="path11" />
          <path
             d="m 2212.7728,942.3911 c 1.1861,0.008 1.1861,0.008 2.3962,0.0159 1.281,0.005 1.281,0.005 2.5879,0.01 1.3468,0.0126 1.3468,0.0126 2.7207,0.0254 0.9017,0.005 1.8034,0.009 2.7325,0.0137 2.235,0.0118 4.47,0.0283 10.0875,1.03855 5.6175,1.01025 5.6175,1.01025 21.979,5.09231 16.3614,4.08206 32.5792,14.54317 48.6385,27.91787 0.5053,0.4204 1.0107,0.8408 1.5313,1.274 6.4287,5.3605 12.7688,10.8052 18.9538,16.4467 1.5121,1.3704 3.0323,2.7319 4.5682,4.0755 7.9448,6.98537 15.3758,14.48157 22.843,21.96967 2.2932,2.2986 4.5918,4.5918 6.8908,6.8845 1.4815,1.4821 2.9626,2.9645 4.4434,4.4473 0.6762,0.6742 1.3524,1.3484 2.0491,2.043 4.4381,4.4596 8.625,9.0844 12.7204,13.8593 0.9733,1.1178 1.9471,2.2351 2.9219,3.3516 6.0188,6.9501 11.811,14.0345 17.4531,21.293 3.7833,4.8599 7.7015,9.6084 11.625,14.3554 l -1,2 c -1.1601,-1.1775 -1.1601,-1.1775 -2.3437,-2.3789 -4.9948,-5.0471 -9.9764,-10.0352 -15.3819,-14.6465 -8.1171,-7.0472 -15.8468,-14.4657 -23.3837,-22.1269 -0.7033,-0.7135 -1.4067,-1.427 -2.1313,-2.1622 -2.8946,-2.9396 -5.7873,-5.881 -8.6646,-8.8376 -19.9389,-20.4575 -43.6569,-41.59977 -73.7823,-42.16037 -9.7099,-0.01 -18.0988,2.0538 -25.2851,8.96097 -13.1152,15.2125 -27.4217,39.8464 -27.0274,60.3515 0.3287,-0.6174 0.6575,-1.2349 0.9961,-1.8711 8.2243,-14.6431 20.2321,-22.6824 36.0664,-27.5039 23.6787,-6.006 46.6008,-5.3687 68.0977,7.2266 7.0252,4.5505 13.4721,9.7295 19.8398,15.1484 1.1263,0.9506 2.2526,1.9011 3.3789,2.8516 5.2067,4.4152 10.3548,8.8604 15.3145,13.5527 12.4203,11.706 25.4048,17.5483 42.0801,20.8574 7.1803,1.643 14.4532,5.1134 20.2265,9.7383 v 2 c -12.7176,2.046 -28.9958,2.4109 -41.3945,-1.8164 -7.9205,-0.5581 -16.6345,6.5809 -23.1649,10.385 -3.1019,1.8049 -6.2141,3.5915 -9.3273,5.3767 -0.6149,0.3527 -1.2298,0.7053 -1.8633,1.0686 -7.9676,4.5564 -16.0511,8.8624 -24.25,12.9861 -0.7112,0.3603 -1.4224,0.7206 -2.1552,1.0918 -27.1731,13.6545 -56.8671,21.2889 -86.8448,11.8457 -0.99,-0.3416 -1.98,-0.6832 -3,-1.0351 -3.3199,-0.9986 -6.5626,-1.4856 -10,-1.9024 -1.3255,3.1822 -2.633,6.3716 -3.9375,9.5625 -0.3731,0.8953 -0.7463,1.7905 -1.1308,2.7129 -2.0158,4.9578 -3.4702,9.3843 -3.9317,14.7246 -3.93,-3.2902 -7.716,-6.6727 -11.4306,-10.2058 -4.9316,-4.6667 -9.8984,-8.8992 -15.5069,-12.7317 -5.8195,-3.9826 -10.9104,-8.4411 -16.01,-13.3029 -4.3637,-4.1567 -8.8965,-8.0122 -13.6072,-11.7752 -2.2224,-1.8035 -4.3344,-3.678 -6.4453,-5.6094 -2.8464,-2.5193 -5.7664,-4.5655 -9,-6.5625 -10.2218,-6.3156 -21.8722,-13.8827 -30,-22.8125 v -2 l -4,-2 v -2 l -3,-1 c -1.845,-1.8761 -3.3683,-3.9273 -5,-6 l 1,-2 c 0.6665,0.6897 1.3329,1.3793 2.0196,2.0899 6.3289,6.4529 12.8289,12.36 19.9804,17.9101 0.8996,0.7063 0.8996,0.7063 1.8174,1.4268 8.0776,6.3214 16.165,11.9068 25.1709,16.8154 3.786,2.2097 6.7785,4.8185 10.0117,7.7578 h 2 c -0.5741,-3.4986 -1.7352,-5.0478 -4.3125,-7.4375 -2.1087,-2.0101 -3.9433,-3.8881 -5.75,-6.1875 -1.9299,-2.5418 -1.9299,-2.5418 -4.875,-4.6875 -6.0746,-4.9096 -9.0986,-12.4994 -12,-19.5625 -0.3399,-0.8222 -0.6798,-1.6445 -1.03,-2.4917 -10.482,-25.7463 -18.0433,-54.4469 -8.0325,-81.63327 0.5608,-1.5604 0.5608,-1.5604 1.1328,-3.1523 5.5565,-14.296 12.5063,-29.50262 33.0397,-41.03432 20.5333,-11.53171 24.9502,-9.24338 28.433,-10.28992 3.2289,-0.70582 6.101,-0.66067 9.3945,-0.52343 1,-1 1,-1 2.8577,-1.11353 z"
             style="fill:#232d2f"
             id="path12"
             sodipodi:nodetypes="scccccsscccccccccccccccccccccccccccccccsccccccccccccccccccccccccccccccccccccccss" />
          <path
             d="m 2196.0139,1699.1806 c -0.3634,7.3944 -2.2486,12.3228 -5.9375,18.6875 -0.4922,0.8707 -0.9844,1.7414 -1.4915,2.6384 -4.3757,7.6098 -9.3008,14.6678 -14.571,21.6741 -1.2924,1.8328 -2.5841,3.6661 -3.875,5.5 -25.5896,35.0884 -62.168,55.1256 -104.75,62.8125 -28.1963,3.8211 -56.6224,2.768 -84.375,-3.3125 -0.9243,-0.1975 -1.8485,-0.3951 -2.8008,-0.5986 -45.0046,-9.8853 -89.6945,-38.1763 -115.0117,-77.0889 -7.1875,-11.7006 -7.1875,-11.7006 -7.1875,-17.3125 4.6652,1.9006 7.612,5.5074 10.9688,9.1172 10.1349,10.5988 21.9861,16.7723 36.8632,17.4141 2.3268,0.017 4.654,0.01 6.9805,-0.031 1.2327,-0.014 2.4653,-0.028 3.7354,-0.043 9.3706,-0.2167 17.5992,-1.2501 26.4521,-4.4568 0.8751,-0.3115 1.7502,-0.6229 2.6519,-0.9438 7.16,-2.5728 14.2585,-5.2961 21.3481,-8.0562 42.2246,-16.4207 69.8871,-19.6524 112.4907,-2.4194 26.5275,11.2324 26.5275,11.2324 54.5093,17.4194 0.7644,0.095 1.5288,0.1908 2.3164,0.2891 7.888,0.5362 15.2181,-2.6137 21.3906,-7.3789 2.4965,-2.2434 4.8959,-4.5615 7.293,-6.9102 1.4502,-1.2595 2.9079,-2.5103 4.375,-3.75 2.916,-2.5221 5.2363,-5.2182 7.625,-8.25 0.66,0 1.32,0 2,0 0.33,-0.99 0.66,-1.98 1,-3 1.6397,-1.3664 3.3111,-2.6949 5,-4 3.373,-3.2924 3.373,-3.2924 6.5,-6.8125 2.1447,-1.6979 3.8499,-1.4024 6.5,-1.1875 z"
             style="fill:#fc50b4;fill-opacity:1"
             id="path15" />
          <ellipse
             style="fill:#4fc8b7;fill-opacity:1;stroke:#eb87b6;stroke-width:0"
             id="path16"
             cx="2285.7144"
             cy="1108.0139"
             rx="19.512196"
             ry="15.331011" />
          <circle
             style="fill:#4fc8b7;fill-opacity:1;stroke:#eb87b6;stroke-width:0"
             id="path17"
             cx="1778.3972"
             cy="1103.8328"
             r="16.724739" />
          <ellipse
             style="fill:#4fc8b7;fill-opacity:1;stroke:#eb87b6;stroke-width:0"
             id="path19"
             cx="1935.8884"
             cy="1333.7979"
             rx="57.142857"
             ry="43.205574" />
          <ellipse
             style="fill:#4fc8b7;fill-opacity:1;stroke:#eb87b6;stroke-width:0"
             id="path19-1"
             cx="2109.8918"
             cy="1334.9929"
             rx="57.142857"
             ry="43.205574" />
        </g>
        <g
           id="g9">
          <path
             d="m 1170.6899,1458.8641 c 30.4696,6.3155 55.7872,22.685 78.4023,43.6406 4.0356,3.6654 8.3126,6.9934 12.5977,10.3594 1.882,1.5069 3.7605,3.0182 5.6392,4.5293 8.5597,6.8781 17.1592,13.4641 26.3608,19.4707 -4.0926,1.3642 -6.4701,-0.2335 -10.1875,-1.9375 -0.6542,-0.2907 -1.3084,-0.5814 -1.9824,-0.8808 -1.6139,-0.7186 -3.2225,-1.449 -4.8301,-2.1817 0,-0.66 0,-1.32 0,-2 -0.5491,-0.2501 -1.0983,-0.5001 -1.6641,-0.7578 -7.7284,-4.1098 -14.5567,-10.3422 -21.1484,-16.0547 -5.0205,-4.3505 -10.0875,-8.631 -15.25,-12.8125 -0.6192,-0.5089 -1.2383,-1.0179 -1.8762,-1.5422 -3.2231,-2.5914 -6.065,-4.5485 -10.0613,-5.8328 2.6735,3.5421 5.3947,6.3174 8.875,9.0625 3.804,3.0412 7.5254,6.1369 11.1885,9.346 12.573,11.1077 12.573,11.1077 26.9365,19.5915 0,0.66 0,1.32 0,2 -2.97,0 -5.94,0 -9,0 0.5105,0.6085 1.0209,1.2169 1.5469,1.8438 9.3339,11.2536 17.9813,22.9685 26.3281,34.9687 9.8472,14.1553 19.8525,28.1254 31.125,41.1875 0.5414,0.6639 1.0828,1.3277 1.6406,2.0117 5.0725,6.1101 11.0008,11.3552 16.836,16.7188 4.5248,4.1728 8.7572,8.3874 12.5234,13.2695 -0.33,0.66 -0.66,1.32 -1,2 -3.96,-0.99 -3.96,-0.99 -8,-2 0,0.66 0,1.32 0,2 -6.7942,-0.9987 -12.9351,-2.5771 -19.3398,-5.0469 -3.8311,-1.3726 -7.6707,-2.1683 -11.6602,-2.9531 10.4233,7.4574 21.949,13.0262 33.4102,18.6875 2.2215,1.1259 4.3784,2.3055 6.5273,3.5625 2.6511,1.5149 5.1989,2.7087 8.0625,3.75 0,0.33 0,0.66 0,1 -8.6895,0.4538 -18.3922,0.4113 -25.375,-5.5 -0.8663,-0.825 -1.7325,-1.65 -2.625,-2.5 -2.7155,-1.7682 -4.9232,-2.9744 -8,-4 1.5404,1.3973 3.0823,2.7928 4.625,4.1875 0.8585,0.7773 1.717,1.5546 2.6016,2.3555 1.8838,1.6689 3.8151,3.2853 5.7851,4.8515 3.2116,2.8002 5.6327,5.7149 8.1758,9.1055 3.1537,4.1227 6.34,8.1696 9.7702,12.0664 4.7509,5.4341 8.9891,11.0783 13.0306,17.0586 0.8388,1.234 0.8388,1.234 1.6945,2.493 5.862,8.6452 11.6462,17.342 17.3941,26.0634 1.7481,2.6501 3.5025,5.2958 5.2571,7.9417 5.6508,8.5517 11.1322,17.1217 16.0989,26.0908 4.6097,8.1953 9.7515,12.6437 17.5671,17.7861 1.551,1.1332 3.0935,2.278 4.625,3.4375 0.6523,0.4937 1.3045,0.9874 1.9766,1.4961 0.4614,0.3519 0.9229,0.7038 1.3984,1.0664 -1.8559,-3.3252 -3.7386,-6.5939 -5.8008,-9.7969 -8.5949,-13.4181 -13.7001,-26.6097 -17.0586,-42.1953 -1.106,-5.0899 -2.5758,-10.0421 -4.1406,-15.0078 0.66,0 1.32,0 2,0 1.2355,1.6807 2.3865,3.4237 3.5,5.1875 11.4673,17.6053 25.3965,33.912 42.0117,46.8438 2.6893,2.1277 5.287,4.3305 7.8633,6.5937 0.7915,0.6935 1.583,1.387 2.3984,2.1016 5.9246,6.0493 8.9137,13.7895 12.3399,21.3984 2.7089,5.8567 5.7849,10.8888 9.8867,15.875 -1.1261,-5.4428 -2.4293,-10.8202 -3.875,-16.1875 -0.3068,-1.1485 -0.6136,-2.2971 -0.9297,-3.4805 -1.2764,-3.558 -3.0538,-6.2362 -5.1953,-9.332 0,-0.66 0,-1.32 0,-2 3.4449,1.4954 5.7799,3.492 8.5,6.0625 4.4847,4.1067 9.1492,7.7654 14.0469,11.3633 3.3549,2.4766 6.6254,5.0543 9.8996,7.6362 53.6639,43.1213 53.6639,43.1213 116.5535,63.938 -0.4679,-0.4574 -0.9357,-0.9147 -1.4177,-1.386 -17.3612,-17.0237 -17.3612,-17.0237 -24.5823,-26.614 -0.5427,-0.7103 -1.0854,-1.4205 -1.6445,-2.1523 -3.3555,-4.5202 -3.3555,-4.5202 -3.3555,-6.8477 4.2598,1.4643 7.4041,3.62 11,6.3125 5.7851,4.2426 11.7495,8.0812 17.875,11.8125 55.8481,34.1215 55.8481,34.1215 66.125,48.875 0,0.66 0,1.32 0,2 0.66,0 1.32,0 2,0 0,-3.3 0,-6.6 0,-10 23.5402,2.2546 46.9623,15.7599 68.044,25.8958 2.688,1.2915 5.3803,2.5737 8.0723,3.8568 1.8852,0.9056 3.7609,1.8289 5.6366,2.754 7.4587,3.5741 14.0816,5.4279 22.2471,6.4934 25.8242,5.4698 49.196,18.2428 68.4375,36 5.5545,5.1061 11.4963,9.527 17.5625,14 12.0314,8.9743 22.757,18.4968 31.9453,30.4492 1.926,2.391 3.9593,4.6301 6.0694,6.8589 13.4937,14.2671 23.0779,29.5448 23.2978,49.5669 0.029,0.8727 0.058,1.7454 0.088,2.6445 0.059,6.0528 -0.6676,9.6388 -4.4004,14.4805 -2.3432,1.6899 -4.245,2.8653 -6.8125,4.0625 -0.6995,0.3323 -1.3991,0.6647 -2.1199,1.0071 -37.2366,16.7821 -87.0556,18.0396 -127.216,18.1335 -0.8355,0 -1.671,0.01 -2.5318,0.01 -4.4261,0.015 -8.8522,0.024 -13.2783,0.029 -3.5932,0 -7.1861,0.018 -10.7793,0.041 -20.6634,0.1281 -40.7814,-0.2045 -61.2622,-3.2816 -1.9579,-0.2738 -3.9161,-0.5459 -5.8745,-0.8164 -33.6679,-4.7337 -67.2353,-12.6211 -100.1256,-21.1851 -1.1255,-0.2923 -1.1255,-0.2923 -2.2737,-0.5906 -42.5515,-11.0817 -83.9681,-24.9162 -124.7263,-41.4094 0,-0.33 0,-0.66 0,-1 4.8379,-0.6947 9.676,-1.3884 14.5142,-2.0813 1.6429,-0.2354 3.2858,-0.4711 4.9287,-0.707 2.3731,-0.3408 4.7463,-0.6806 7.1196,-1.0203 0.7243,-0.1042 1.4486,-0.2084 2.1948,-0.3158 4.7418,-0.6774 9.4883,-1.293 14.2427,-1.8756 -10.3373,-2.0067 -20.262,-2.2757 -30.75,-2.1875 -1.6843,0.01 -3.3687,0.013 -5.053,0.02 -19.0704,0.097 -38.1354,0.6116 -57.197,1.168 4.0342,-4.1408 8.075,-7.3326 12.875,-10.5 0.7701,-0.5119 1.5403,-1.0238 2.3337,-1.5513 7.378,-4.8232 15.0127,-9.1615 22.7342,-13.4077 5.8884,-3.2478 11.528,-6.7118 17.0571,-10.541 -0.6043,-0.1294 -1.2087,-0.2588 -1.8313,-0.3921 -12.9818,-2.8124 -25.7706,-5.9828 -38.5109,-9.7245 -28.9469,-8.4967 -58.2515,-15.4 -87.9625,-20.6295 -6.3119,-1.1291 -12.5002,-2.606 -18.6953,-4.2539 0,-0.99 0,-1.98 0,-3 0.8799,-0.147 0.8799,-0.147 1.7776,-0.297 6.0835,-1.0172 12.166,-2.0399 18.248,-3.066 2.2726,-0.3827 4.5454,-0.7639 6.8184,-1.1436 3.2597,-0.5448 6.5184,-1.0947 9.7771,-1.6457 1.0229,-0.1699 2.0458,-0.3397 3.0997,-0.5147 0.9409,-0.1601 1.8818,-0.3202 2.8512,-0.4851 0.8327,-0.1399 1.6655,-0.2798 2.5234,-0.4239 1.9047,-0.2453 1.9047,-0.2453 2.9046,-1.424 -0.9861,-0.2939 -0.9861,-0.2939 -1.9922,-0.5937 -26.8115,-8.4286 -49.479,-22.9248 -71.4087,-40.1587 -1.6513,-1.2884 -3.317,-2.5563 -4.9858,-3.8218 -9.0732,-6.93 -17.3977,-14.5068 -25.6133,-22.4263 -1.3477,-1.2858 -1.3477,-1.2858 -2.7227,-2.5977 -4.0134,-3.9001 -4.0134,-3.9001 -5.2773,-5.4023 0,-0.66 0,-1.32 0,-2 4.2804,1.4191 6.9664,3.5088 10.3125,6.5 23.3266,20.1003 50.9601,31.1618 81.6875,29.5 8.0926,-0.7953 16.0456,-2.3452 24,-4 1.1186,-0.2303 2.2372,-0.4605 3.3896,-0.6977 3.4588,-0.7241 6.9105,-1.4747 10.3604,-2.2398 1.5698,-0.3425 1.5698,-0.3425 3.1714,-0.6919 9.6612,-2.2409 18.6968,-5.7993 27.3286,-10.6831 0.9127,-0.5118 1.8253,-1.0235 2.7656,-1.5508 0.9823,-0.5627 0.9823,-0.5627 1.9844,-1.1367 -0.5535,-0.04 -1.107,-0.079 -1.6773,-0.1201 -20.3266,-1.5314 -20.3266,-1.5314 -28.3227,-5.8799 -1.6242,-0.8179 -1.6242,-0.8179 -3.2813,-1.6523 -8.8186,-4.5996 -15.6575,-10.418 -22.7187,-17.3477 -8.6488,-8.3694 -17.7904,-15.4054 -27.627,-22.3252 -6.1512,-4.3413 -12.236,-8.7761 -18.3281,-13.1997 -1.9377,-1.3977 -3.8876,-2.7763 -5.8418,-4.1509 -1.1096,-0.7952 -2.219,-1.5907 -3.3281,-2.3867 -0.9513,-0.6716 -1.9027,-1.3432 -2.8828,-2.0352 -0.6574,-0.6277 -1.3149,-1.2555 -1.9922,-1.9023 0,-1.32 0,-2.64 0,-4 0.8209,-0.045 1.6418,-0.09 2.4875,-0.136 3.1001,-0.1752 6.1993,-0.361 9.2984,-0.5537 1.9791,-0.1199 3.9589,-0.2279 5.9387,-0.3357 11.4201,-0.636 11.4201,-0.636 22.2754,-3.9746 0.33,-0.99 0.66,-1.98 1,-3 -0.9926,-0.4615 -1.9852,-0.923 -3.0078,-1.3984 -7.0827,-3.371 -13.7898,-6.881 -20.1172,-11.5391 -0.5715,-0.4206 -1.1431,-0.8411 -1.7319,-1.2744 -1.1481,-0.8475 -2.2957,-1.6957 -3.4429,-2.5445 -15.0947,-11.0414 -31.8562,-17.6093 -49.1533,-24.4389 -4.4917,-1.775 -8.944,-3.6348 -13.3907,-5.5195 -2.5923,-1.0556 -5.1914,-2.0583 -7.8125,-3.0391 -0.8196,-0.3093 -1.6393,-0.6186 -2.4838,-0.9373 -1.6287,-0.612 -3.2605,-1.216 -4.8956,-1.811 -0.7436,-0.2803 -1.4872,-0.5606 -2.2534,-0.8494 -1.0008,-0.3685 -1.0008,-0.3685 -2.0219,-0.7446 -1.689,-0.9038 -1.689,-0.9038 -3.689,-3.9038 17.9667,0.8415 35.8317,5.7596 53.3638,9.5376 15.1758,3.4785 15.1758,3.4785 30.6362,4.6499 1.2581,-0.01 2.5162,-0.013 3.8125,-0.02 3.2091,-0.027 3.2091,-0.027 6.1875,-1.168 -1.7009,-12.8487 -16.0854,-24.201 -25.053,-32.9631 -14.7927,-14.4858 -14.7927,-14.4858 -15.947,-24.0364 11.0942,-1.1979 22.376,-1.9259 33,2 -26.3431,-35.2549 -63.7859,-61.1408 -106,-74 -7.8069,-2.6137 -7.8069,-2.6137 -9,-5 19.9873,-2.7623 39.9939,-5.3782 60,-8 -0.3983,-0.5246 -0.7966,-1.0491 -1.207,-1.5896 -6.1204,-8.1018 -10.813,-16.0399 -14.4771,-25.532 -2.4987,-6.4553 -5.3686,-12.698 -8.3774,-18.9297 -0.6439,-1.337 -1.2823,-2.6766 -1.916,-4.0185 -3.9494,-8.3561 -7.8934,-15.9275 -14.0225,-22.9302 -0.5685,-0.7335 -1.137,-1.4669 -1.7227,-2.2226 -10.7187,-13.2676 -28.5444,-20.7341 -44.0468,-26.7344 -2.2305,-1.043 -2.2305,-1.043 -3.2305,-3.043 6.0823,0.6758 12.0131,1.7364 18,3 0,-0.99 0,-1.98 0,-3 7.5957,-0.5818 13.1411,0.7311 20,4 -0.7103,-0.9642 -1.4206,-1.9284 -2.1523,-2.9219 -0.9288,-1.2758 -1.8571,-2.5518 -2.7852,-3.8281 -0.4686,-0.6342 -0.9372,-1.2684 -1.4199,-1.9219 -0.448,-0.6187 -0.8959,-1.2375 -1.3574,-1.875 -0.4138,-0.5655 -0.8275,-1.1311 -1.2537,-1.7138 -1.1236,-1.8946 -1.601,-3.5889 -2.0315,-5.7393 1.32,0.33 2.64,0.66 4,1 -1.1028,-1.272 -2.2073,-2.5425 -3.3125,-3.8125 -0.9223,-1.0615 -0.9223,-1.0615 -1.8633,-2.1445 -1.757,-2.0254 -1.757,-2.0254 -3.5547,-3.6797 -1.2695,-1.3633 -1.2695,-1.3633 -1.2695,-3.3633 -0.544,-0.223 -1.088,-0.446 -1.6484,-0.6758 -3.083,-1.7361 -5.4441,-4.0787 -7.9766,-6.5117 -5.1527,-4.8241 -10.4683,-8.9328 -16.375,-12.8125 -1.2497,-0.8461 -2.4983,-1.6939 -3.7461,-2.543 -1.3343,-0.9029 -2.6689,-1.8052 -4.0039,-2.707 -0.6262,-0.4248 -1.2525,-0.8496 -1.8977,-1.2873 -3.6686,-2.4534 -7.351,-4.5725 -11.3523,-6.4627 0,-0.66 0,-1.32 0,-2 z"
             style="fill:#7ac3ff;fill-opacity:1"
             id="path5"
             transform="translate(136.58537,16.724739)" />
          <path
             d="m 1478.338,1787.4774 c 3.4449,1.4954 5.7799,3.492 8.5,6.0625 4.4847,4.1067 9.1492,7.7654 14.0469,11.3633 3.3549,2.4766 6.6254,5.0543 9.8996,7.6362 53.6639,43.1213 53.6639,43.1213 116.5535,63.938 -0.4678,-0.4574 -0.9357,-0.9148 -1.4177,-1.386 -17.3612,-17.0237 -17.3612,-17.0237 -24.5823,-26.614 -0.5427,-0.7103 -1.0854,-1.4205 -1.6445,-2.1523 -3.3555,-4.5202 -3.3555,-4.5202 -3.3555,-6.8477 4.2598,1.4643 7.4041,3.62 11,6.3125 5.7851,4.2426 11.7495,8.0812 17.875,11.8125 55.8481,34.1215 55.8481,34.1215 66.125,48.875 0,0.66 0,1.32 0,2 0.66,0 1.32,0 2,0 0,-3.3 0,-6.6 0,-10 23.5402,2.2546 46.9623,15.7599 68.044,25.8958 2.688,1.2915 5.3803,2.5737 8.0723,3.8568 1.8852,0.9056 3.7609,1.8289 5.6366,2.754 7.4587,3.5741 14.0816,5.4279 22.2471,6.4934 25.8242,5.4698 49.196,18.2428 68.4375,36 5.5545,5.1061 11.4963,9.527 17.5625,14 12.0314,8.9743 22.757,18.4968 31.9453,30.4492 1.926,2.391 3.9593,4.6301 6.0694,6.8589 13.4937,14.2671 23.0779,29.5448 23.2978,49.5669 0.029,0.8727 0.058,1.7454 0.088,2.6445 0.059,6.0528 -0.6676,9.6388 -4.4004,14.4805 -2.3432,1.6899 -4.245,2.8653 -6.8125,4.0625 -0.6995,0.3323 -1.3991,0.6647 -2.1199,1.0071 -37.6906,16.9867 -87.9559,17.906 -128.5791,18.5002 -1.9636,0.037 -3.927,0.092 -5.8896,0.1641 -16.366,0.5881 -16.366,0.5881 -21.824,-2.6433 -2.2675,-2.2484 -4.0095,-4.4395 -5.7749,-7.0906 -1.1504,-1.3268 -2.3147,-2.6418 -3.5,-3.9375 -0.5646,-0.66 -1.1292,-1.32 -1.7109,-2 -1.2301,-1.4181 -2.4871,-2.813 -3.7656,-4.1875 -4.7632,-5.1269 -9.0693,-10.4782 -13.2735,-16.0625 -11.7706,-15.5896 -24.6928,-30.2985 -39.75,-42.8125 -1.2085,-1.0074 -1.2085,-1.0074 -2.4414,-2.0352 -14.7752,-12.1943 -30.019,-23.7638 -45.5586,-34.9648 -0.5441,-0.3933 -1.0883,-0.7866 -1.6489,-1.1919 -7.1296,-5.1495 -14.3215,-10.1568 -21.6675,-14.9956 -2.9865,-2.0171 -5.8481,-4.1527 -8.6719,-6.3906 -2.1544,-1.5772 -2.1544,-1.5772 -5.2344,-3.211 -4.2664,-2.4001 -8.05,-5.3285 -11.9023,-8.3359 -1.5091,-1.168 -3.0182,-2.336 -4.5273,-3.5039 -0.7385,-0.5738 -1.477,-1.1476 -2.2378,-1.7388 -1.8623,-1.4407 -3.7338,-2.8672 -5.6138,-4.2846 -10.8878,-8.2427 -21.1568,-17.1518 -31.2617,-26.3321 -2.0952,-1.89 -4.2206,-3.7377 -6.3594,-5.5781 -4.1572,-3.6197 -8.014,-7.5072 -11.875,-11.4375 -2.7992,-2.8136 -5.617,-5.6065 -8.4531,-8.3828 -7.3336,-7.2077 -14.2395,-14.4772 -20.5469,-22.6172 -0.9478,-1.1938 -1.8971,-2.3864 -2.8477,-3.5781 -0.9887,-1.2444 -1.977,-2.4892 -2.9648,-3.7344 -0.4566,-0.575 -0.9133,-1.15 -1.3838,-1.7424 -7.8038,-9.9274 -7.8038,-9.9274 -7.8038,-12.9451 -0.66,0 -1.32,0 -2,0 -11.8558,-20.7542 -11.8558,-20.7542 -16.125,-31.8125 -0.2701,-0.6966 -0.5403,-1.3932 -0.8186,-2.1108 -1.8238,-4.9342 -3.0249,-9.9227 -4.0564,-15.0767 2.6475,2.5778 4.9443,4.9165 7,8 -1.1261,-5.4428 -2.4293,-10.8202 -3.875,-16.1875 -0.4602,-1.7228 -0.4602,-1.7228 -0.9297,-3.4805 -1.2764,-3.558 -3.0538,-6.2362 -5.1953,-9.332 0,-0.66 0,-1.32 0,-2 z"
             style="fill:#fc50b4;fill-opacity:1"
             id="path9"
             transform="translate(136.58537,16.724739)" />
          <path
             d="m 1307.3693,1475.4494 c 30.4696,6.3154 55.7872,22.685 78.4023,43.6406 4.0356,3.6654 8.3126,6.9934 12.5977,10.3594 1.882,1.5069 3.7605,3.0182 5.6392,4.5293 8.5597,6.8781 17.1592,13.4641 26.3608,19.4707 -4.0926,1.3642 -6.4701,-0.2335 -10.1875,-1.9375 -0.6542,-0.2907 -1.3084,-0.5814 -1.9824,-0.8809 -1.6139,-0.7186 -3.2225,-1.449 -4.8301,-2.1816 0,-0.66 0,-1.32 0,-2 -0.5491,-0.2501 -1.0983,-0.5002 -1.6641,-0.7578 -7.7284,-4.1098 -14.5567,-10.3422 -21.1484,-16.0547 -5.0205,-4.3505 -10.0875,-8.631 -15.25,-12.8125 -0.6192,-0.5089 -1.2383,-1.0179 -1.8762,-1.5422 -3.2231,-2.5914 -6.065,-4.5485 -10.0613,-5.8328 2.6735,3.5421 5.3947,6.3174 8.875,9.0625 3.804,3.0412 7.5254,6.1369 11.1885,9.3459 12.573,11.1078 12.573,11.1078 26.9365,19.5916 0,0.66 0,1.32 0,2 -2.97,0 -5.94,0 -9,0 0.5105,0.6084 1.0209,1.2169 1.5469,1.8438 9.3339,11.2536 17.9813,22.9685 26.3281,34.9687 9.8472,14.1553 19.8525,28.1253 31.125,41.1875 0.5414,0.6639 1.0828,1.3277 1.6406,2.0117 5.0725,6.1101 11.0008,11.3552 16.836,16.7188 4.5248,4.1728 8.7572,8.3874 12.5234,13.2695 -0.33,0.66 -0.66,1.32 -1,2 -3.96,-0.99 -3.96,-0.99 -8,-2 0,0.66 0,1.32 0,2 -6.7942,-0.9988 -12.9351,-2.5771 -19.3398,-5.0469 -3.8311,-1.3726 -7.6707,-2.1683 -11.6602,-2.9531 10.4234,7.4574 21.949,13.0262 33.4102,18.6875 2.2215,1.1259 4.3784,2.3055 6.5273,3.5625 2.6511,1.5149 5.1989,2.7087 8.0625,3.75 0,0.33 0,0.66 0,1 -8.6895,0.4538 -18.3922,0.4112 -25.375,-5.5 -0.8662,-0.825 -1.7325,-1.65 -2.625,-2.5 -2.4202,-1.5938 -4.5802,-2.8525 -7.3125,-3.8125 -5.2362,-2.3137 -9.5101,-6.2289 -13.9297,-9.8164 -8.4949,-6.8558 -17.0196,-13.4689 -27.7578,-16.3711 0,-0.66 0,-1.32 0,-2 -0.6806,-0.6187 -1.3612,-1.2375 -2.0625,-1.875 -6.7393,-6.5489 -10.3565,-15.7273 -13.6721,-24.3474 -2.475,-6.4248 -5.3342,-12.6306 -8.3269,-18.8289 -0.6439,-1.337 -1.2823,-2.6767 -1.916,-4.0185 -3.9494,-8.3562 -7.8934,-15.9275 -14.0225,-22.9302 -0.5685,-0.7335 -1.137,-1.467 -1.7227,-2.2227 -10.7187,-13.2675 -28.5444,-20.7341 -44.0468,-26.7343 -2.2305,-1.043 -2.2305,-1.043 -3.2305,-3.043 6.0823,0.6758 12.0131,1.7364 18,3 0,-0.99 0,-1.98 0,-3 7.5957,-0.5818 13.1412,0.7311 20,4 -0.7103,-0.9642 -1.4205,-1.9284 -2.1523,-2.9219 -0.9288,-1.2758 -1.8571,-2.5518 -2.7852,-3.8281 -0.4686,-0.6342 -0.9371,-1.2684 -1.4199,-1.9219 -0.448,-0.6187 -0.8959,-1.2375 -1.3574,-1.875 -0.4138,-0.5656 -0.8275,-1.1311 -1.2537,-1.7138 -1.1236,-1.8946 -1.601,-3.5889 -2.0315,-5.7393 1.32,0.33 2.64,0.66 4,1 -1.1028,-1.272 -2.2073,-2.5426 -3.3125,-3.8125 -0.9223,-1.0615 -0.9223,-1.0615 -1.8633,-2.1445 -1.757,-2.0254 -1.757,-2.0254 -3.5547,-3.6797 -1.2695,-1.3633 -1.2695,-1.3633 -1.2695,-3.3633 -0.544,-0.223 -1.088,-0.446 -1.6484,-0.6758 -3.083,-1.7361 -5.4441,-4.0787 -7.9766,-6.5117 -5.1527,-4.8242 -10.4683,-8.9329 -16.375,-12.8125 -1.2497,-0.8462 -2.4983,-1.6939 -3.7461,-2.543 -1.3343,-0.9029 -2.6689,-1.8052 -4.0039,-2.707 -0.6262,-0.4248 -1.2525,-0.8497 -1.8977,-1.2874 -3.6686,-2.4533 -7.3509,-4.5724 -11.3523,-6.4626 0,-0.66 0,-1.32 0,-2 z"
             style="fill:#eb87b6;fill-opacity:1"
             id="path21" />
        </g>
      </g>
    </g>
  </g>
</svg>
